<svg width="153" height="47" viewBox="0 0 153 47" fill="none" xmlns="http://www.w3.org/2000/svg">
<g filter="url(#filter0_d_202_38)">
<path d="M41.6906 20.6901L37.7708 3.17651C37.6267 2.53618 37.2318 1.97856 36.6728 1.62599C36.1139 1.27342 35.4364 1.1547 34.7891 1.29586L17.0932 5.1753C16.7726 5.24557 16.4692 5.37764 16.2002 5.56397C15.9313 5.75031 15.702 5.98725 15.5255 6.26128C15.3491 6.53531 15.2289 6.84105 15.1719 7.16105C15.1148 7.48105 15.122 7.80903 15.193 8.12628L16.8353 15.4639H6.75C6.08719 15.4646 5.45173 15.7256 4.98306 16.1894C4.51438 16.6532 4.25074 17.2822 4.25 17.9381V35.8763C4.25074 36.5323 4.51438 37.1612 4.98306 37.625C5.45173 38.0888 6.08719 38.3498 6.75 38.3505H24.875C25.5378 38.3498 26.1733 38.0888 26.6419 37.625C27.1106 37.1612 27.3743 36.5323 27.375 35.8763V26.3626L39.7904 23.641C40.4374 23.4984 41.0008 23.1076 41.357 22.5544C41.7133 22.0012 41.8332 21.3307 41.6906 20.6901ZM24.875 35.8763H6.75V17.9381H17.3891L19.1128 25.6396C19.2359 26.1887 19.5442 26.6799 19.9869 27.0326C20.4297 27.3852 20.9805 27.5781 21.5487 27.5797C21.7323 27.5796 21.9152 27.5597 22.0944 27.5203L24.8756 26.9105L24.8766 35.8763H24.875ZM39.25 21.2252L21.5537 25.1046L17.6339 7.59092L35.33 3.71133L39.2513 21.2246L39.25 21.2252Z" fill="#494D4B"/>
<path d="M9.25 20.4124H12.375V23.5052H9.25V20.4124Z" fill="#7B5DD5"/>
<path d="M9.25 30.3093H12.375V33.4021H9.25V30.3093Z" fill="#7B5DD5"/>
<path d="M19.25 30.3093H22.375V33.4021H19.25V30.3093Z" fill="#7B5DD5"/>
<path d="M14.25 25.3608H17.375V28.4536H14.25V25.3608Z" fill="#1DB863"/>
<path d="M20.6137 9.47682L23.6648 8.80847L24.3401 11.8282L21.289 12.4965L20.6137 9.47682Z" fill="#1DB863"/>
<path d="M32.5413 16.9941L35.5924 16.3253L36.2681 19.3449L33.217 20.0137L32.5413 16.9941Z" fill="#7B5DD5"/>
<path d="M26.5784 13.2326L29.6294 12.5638L30.3052 15.5833L27.2543 16.2521L26.5784 13.2326Z" fill="#1DB863"/>
</g>
<path d="M82.5971 12.3936C81.281 12.3936 80.1712 12.9583 79.2677 14.0877V6H75.0986V28.6279H79.2677V16.9309C79.69 16.2336 80.2793 15.885 81.0355 15.885C81.6837 15.885 82.1502 16.0961 82.435 16.5185C82.7296 16.9309 82.877 17.6037 82.877 18.5367V28.6279H87.0608V18.4925C87.0509 16.4693 86.6679 14.9471 85.9117 13.9257C85.1555 12.9043 84.0506 12.3936 82.5971 12.3936Z" fill="#7B5DD5"/>
<path fill-rule="evenodd" clip-rule="evenodd" d="M91.4803 27.0074C92.6785 28.2842 94.3481 28.9226 96.4891 28.9226C97.6283 28.9226 98.6841 28.7065 99.6564 28.2744C100.629 27.8324 101.37 27.2579 101.881 26.5508L100.246 24.0316C99.3127 24.9843 98.1488 25.4606 96.7542 25.4606C95.7918 25.4606 95.0797 25.1905 94.6181 24.6504C94.1566 24.1004 93.8963 23.2361 93.8374 22.0576H102.131V20.0099C102.112 17.4957 101.596 15.6002 100.584 14.3234C99.5729 13.0369 98.0654 12.3936 96.0619 12.3936C94.0092 12.3936 92.4329 13.0761 91.333 14.4413C90.233 15.8064 89.683 17.7461 89.683 20.2603V21.5272C89.683 23.904 90.2821 25.7307 91.4803 27.0074ZM98.0359 19.1407H93.8668C93.9258 17.9916 94.1173 17.1568 94.4414 16.6363C94.7753 16.1158 95.3056 15.8555 96.0324 15.8555C96.7592 15.8555 97.2699 16.1011 97.5645 16.5921C97.8591 17.0832 98.0163 17.805 98.0359 18.7577V19.1407Z" fill="#7B5DD5"/>
<path fill-rule="evenodd" clip-rule="evenodd" d="M118.66 27.3905C118.778 27.9699 118.896 28.3824 119.014 28.6279H123.212V28.3775C122.839 27.6016 122.643 26.5262 122.623 25.1513V17.6528C122.623 15.9636 122.142 14.6672 121.179 13.7636C120.227 12.8503 118.876 12.3936 117.128 12.3936C115.439 12.3936 114.039 12.8748 112.93 13.8373C111.83 14.7899 111.28 16.0028 111.28 17.476H115.449C115.449 16.2582 115.969 15.6493 117.01 15.6493C117.482 15.6493 117.84 15.7966 118.086 16.0912C118.331 16.3859 118.454 16.8917 118.454 17.6086V18.8903H117.187C115.184 18.9099 113.647 19.3764 112.576 20.2898C111.515 21.2031 110.985 22.4946 110.985 24.1642C110.985 25.5686 111.422 26.7128 112.296 27.5967C113.18 28.4806 114.29 28.9226 115.626 28.9226C116.902 28.9226 117.914 28.4119 118.66 27.3905ZM117.732 25.3722C117.408 25.5588 117.015 25.6521 116.554 25.6521C115.631 25.6521 115.169 25.0629 115.169 23.8843C115.169 23.1281 115.37 22.5241 115.773 22.0723C116.185 21.6205 116.745 21.3947 117.452 21.3947H118.454V24.7093C118.297 24.9646 118.056 25.1856 117.732 25.3722Z" fill="#7B5DD5"/>
<path fill-rule="evenodd" clip-rule="evenodd" d="M136.766 26.9191C137.63 25.5834 138.062 23.6633 138.062 21.159V19.9362C138.042 17.3827 137.6 15.4872 136.736 14.2498C135.882 13.0123 134.605 12.3936 132.906 12.3936C131.531 12.3936 130.446 12.9779 129.65 14.1466L129.503 12.6882H125.643V34.7563H129.812V27.3463C130.598 28.3971 131.639 28.9226 132.935 28.9226C134.634 28.9226 135.911 28.2547 136.766 26.9191ZM133.392 16.8426C133.736 17.4809 133.908 18.5711 133.908 20.113V21.159C133.908 22.6321 133.746 23.7174 133.422 24.4147C133.107 25.112 132.538 25.4606 131.713 25.4606C130.819 25.4606 130.185 25.1169 129.812 24.4294V16.9604C130.205 16.2435 130.829 15.885 131.683 15.885C132.489 15.885 133.058 16.2042 133.392 16.8426Z" fill="#7B5DD5"/>
<path fill-rule="evenodd" clip-rule="evenodd" d="M151.704 26.9191C152.568 25.5834 153 23.6633 153 21.159V19.9362C152.98 17.3827 152.538 15.4872 151.674 14.2498C150.82 13.0123 149.543 12.3936 147.844 12.3936C146.469 12.3936 145.384 12.9779 144.588 14.1466L144.441 12.6882H140.581V34.7563H144.75V27.3463C145.536 28.3971 146.577 28.9226 147.873 28.9226C149.572 28.9226 150.849 28.2547 151.704 26.9191ZM148.33 16.8426C148.674 17.4809 148.846 18.5711 148.846 20.113V21.159C148.846 22.6321 148.684 23.7174 148.36 24.4147C148.045 25.112 147.476 25.4606 146.651 25.4606C145.757 25.4606 145.123 25.1169 144.75 24.4294V16.9604C145.143 16.2435 145.767 15.885 146.621 15.885C147.426 15.885 147.996 16.2042 148.33 16.8426Z" fill="#7B5DD5"/>
<path d="M67.8654 13.064L67.0095 9.23994L62.9411 10.1505L63.797 13.9746L62 14.3768L62.6854 17.4389L64.4824 17.0367L66.3325 25.3029C67.0348 28.3058 68.699 29.5134 71.325 28.9257C72.1301 28.7455 72.8487 28.4488 73.4808 28.0356L72.8017 24.8664C72.5675 24.9893 72.254 25.0947 71.861 25.1826C71.3818 25.2899 71.0302 25.2478 70.8062 25.0564C70.5918 24.8628 70.416 24.4594 70.2787 23.846L68.5508 16.1261L70.6353 15.6595L69.95 12.5974L67.8654 13.064Z" fill="#7B5DD5"/>
<defs>
<filter id="filter0_d_202_38" x="-1" y="0" width="48" height="47.5876" filterUnits="userSpaceOnUse" color-interpolation-filters="sRGB">
<feFlood flood-opacity="0" result="BackgroundImageFix"/>
<feColorMatrix in="SourceAlpha" type="matrix" values="0 0 0 0 0 0 0 0 0 0 0 0 0 0 0 0 0 0 127 0" result="hardAlpha"/>
<feOffset dy="4"/>
<feGaussianBlur stdDeviation="2"/>
<feComposite in2="hardAlpha" operator="out"/>
<feColorMatrix type="matrix" values="0 0 0 0 0 0 0 0 0 0 0 0 0 0 0 0 0 0 0.25 0"/>
<feBlend mode="normal" in2="BackgroundImageFix" result="effect1_dropShadow_202_38"/>
<feBlend mode="normal" in="SourceGraphic" in2="effect1_dropShadow_202_38" result="shape"/>
</filter>
</defs>
</svg>
