<svg width="1440" height="820" viewBox="0 0 1440 820" fill="none" xmlns="http://www.w3.org/2000/svg">
<rect width="1440" height="820" fill="#F9F3FD"/>
<path d="M276 180C276 175.582 279.582 172 284 172H958V244H284C279.582 244 276 240.418 276 236V180Z" fill="white"/>
<path d="M307.65 215V200.781H311.664C312.901 200.781 313.995 201.055 314.945 201.602C315.896 202.148 316.628 202.926 317.143 203.936C317.663 204.945 317.927 206.104 317.934 207.412V208.32C317.934 209.661 317.673 210.837 317.152 211.846C316.638 212.855 315.899 213.63 314.936 214.17C313.979 214.71 312.862 214.987 311.586 215H307.65ZM309.525 202.324V213.467H311.498C312.943 213.467 314.066 213.018 314.867 212.119C315.674 211.221 316.078 209.941 316.078 208.281V207.451C316.078 205.837 315.697 204.583 314.936 203.691C314.18 202.793 313.106 202.337 311.713 202.324H309.525ZM322.455 215H320.648V204.434H322.455V215ZM320.502 201.631C320.502 201.338 320.59 201.09 320.766 200.889C320.948 200.687 321.215 200.586 321.566 200.586C321.918 200.586 322.185 200.687 322.367 200.889C322.549 201.09 322.641 201.338 322.641 201.631C322.641 201.924 322.549 202.168 322.367 202.363C322.185 202.559 321.918 202.656 321.566 202.656C321.215 202.656 320.948 202.559 320.766 202.363C320.59 202.168 320.502 201.924 320.502 201.631ZM324.926 209.629C324.926 207.982 325.307 206.673 326.068 205.703C326.83 204.727 327.839 204.238 329.096 204.238C330.385 204.238 331.391 204.694 332.113 205.605L332.201 204.434H333.852V214.746C333.852 216.113 333.445 217.191 332.631 217.979C331.824 218.766 330.736 219.16 329.369 219.16C328.607 219.16 327.862 218.997 327.133 218.672C326.404 218.346 325.847 217.9 325.463 217.334L326.4 216.25C327.175 217.207 328.122 217.686 329.242 217.686C330.121 217.686 330.805 217.438 331.293 216.943C331.788 216.449 332.035 215.752 332.035 214.854V213.945C331.312 214.779 330.326 215.195 329.076 215.195C327.839 215.195 326.837 214.697 326.068 213.701C325.307 212.705 324.926 211.348 324.926 209.629ZM326.742 209.834C326.742 211.025 326.986 211.963 327.475 212.646C327.963 213.324 328.646 213.662 329.525 213.662C330.665 213.662 331.501 213.145 332.035 212.109V207.285C331.482 206.276 330.652 205.771 329.545 205.771C328.666 205.771 327.979 206.113 327.484 206.797C326.99 207.48 326.742 208.493 326.742 209.834ZM338.549 215H336.742V204.434H338.549V215ZM336.596 201.631C336.596 201.338 336.684 201.09 336.859 200.889C337.042 200.687 337.309 200.586 337.66 200.586C338.012 200.586 338.279 200.687 338.461 200.889C338.643 201.09 338.734 201.338 338.734 201.631C338.734 201.924 338.643 202.168 338.461 202.363C338.279 202.559 338.012 202.656 337.66 202.656C337.309 202.656 337.042 202.559 336.859 202.363C336.684 202.168 336.596 201.924 336.596 201.631ZM343.9 201.875V204.434H345.873V205.83H343.9V212.383C343.9 212.806 343.988 213.125 344.164 213.34C344.34 213.548 344.639 213.652 345.062 213.652C345.271 213.652 345.557 213.613 345.922 213.535V215C345.447 215.13 344.984 215.195 344.535 215.195C343.728 215.195 343.119 214.951 342.709 214.463C342.299 213.975 342.094 213.281 342.094 212.383V205.83H340.17V204.434H342.094V201.875H343.9ZM352.377 215.195C350.945 215.195 349.779 214.727 348.881 213.789C347.982 212.845 347.533 211.585 347.533 210.01V209.678C347.533 208.63 347.732 207.695 348.129 206.875C348.533 206.048 349.092 205.404 349.809 204.941C350.531 204.473 351.312 204.238 352.152 204.238C353.526 204.238 354.594 204.691 355.355 205.596C356.117 206.501 356.498 207.796 356.498 209.482V210.234H349.34C349.366 211.276 349.669 212.119 350.248 212.764C350.834 213.402 351.576 213.721 352.475 213.721C353.113 213.721 353.653 213.59 354.096 213.33C354.538 213.07 354.926 212.725 355.258 212.295L356.361 213.154C355.476 214.515 354.148 215.195 352.377 215.195ZM352.152 205.723C351.423 205.723 350.811 205.99 350.316 206.523C349.822 207.051 349.516 207.793 349.398 208.75H354.691V208.613C354.639 207.695 354.392 206.986 353.949 206.484C353.507 205.977 352.908 205.723 352.152 205.723ZM370.082 213.955C369.379 214.782 368.347 215.195 366.986 215.195C365.86 215.195 365.001 214.87 364.408 214.219C363.822 213.561 363.526 212.591 363.52 211.309V204.434H365.326V211.26C365.326 212.861 365.977 213.662 367.279 213.662C368.66 213.662 369.577 213.148 370.033 212.119V204.434H371.84V215H370.121L370.082 213.955ZM376.293 204.434L376.342 205.605C377.117 204.694 378.161 204.238 379.477 204.238C380.954 204.238 381.96 204.805 382.494 205.938C382.846 205.43 383.301 205.02 383.861 204.707C384.428 204.395 385.095 204.238 385.863 204.238C388.181 204.238 389.359 205.465 389.398 207.92V215H387.592V208.027C387.592 207.272 387.419 206.709 387.074 206.338C386.729 205.96 386.15 205.771 385.336 205.771C384.665 205.771 384.109 205.973 383.666 206.377C383.223 206.774 382.966 207.311 382.895 207.988V215H381.078V208.076C381.078 206.54 380.326 205.771 378.822 205.771C377.637 205.771 376.827 206.276 376.391 207.285V215H374.584V204.434H376.293ZM398.656 215C398.552 214.792 398.467 214.421 398.402 213.887C397.562 214.759 396.56 215.195 395.395 215.195C394.353 215.195 393.497 214.902 392.826 214.316C392.162 213.724 391.83 212.975 391.83 212.07C391.83 210.97 392.247 210.117 393.08 209.512C393.92 208.9 395.098 208.594 396.615 208.594H398.373V207.764C398.373 207.132 398.184 206.631 397.807 206.26C397.429 205.882 396.872 205.693 396.137 205.693C395.492 205.693 394.952 205.856 394.516 206.182C394.079 206.507 393.861 206.901 393.861 207.363H392.045C392.045 206.836 392.23 206.328 392.602 205.84C392.979 205.345 393.487 204.954 394.125 204.668C394.77 204.382 395.476 204.238 396.244 204.238C397.462 204.238 398.415 204.544 399.105 205.156C399.796 205.762 400.154 206.598 400.18 207.666V212.529C400.18 213.499 400.303 214.271 400.551 214.844V215H398.656ZM395.658 213.623C396.225 213.623 396.762 213.477 397.27 213.184C397.777 212.891 398.145 212.51 398.373 212.041V209.873H396.957C394.743 209.873 393.637 210.521 393.637 211.816C393.637 212.383 393.826 212.826 394.203 213.145C394.581 213.464 395.066 213.623 395.658 213.623ZM414.496 215C414.392 214.792 414.307 214.421 414.242 213.887C413.402 214.759 412.4 215.195 411.234 215.195C410.193 215.195 409.337 214.902 408.666 214.316C408.002 213.724 407.67 212.975 407.67 212.07C407.67 210.97 408.087 210.117 408.92 209.512C409.76 208.9 410.938 208.594 412.455 208.594H414.213V207.764C414.213 207.132 414.024 206.631 413.646 206.26C413.269 205.882 412.712 205.693 411.977 205.693C411.332 205.693 410.792 205.856 410.355 206.182C409.919 206.507 409.701 206.901 409.701 207.363H407.885C407.885 206.836 408.07 206.328 408.441 205.84C408.819 205.345 409.327 204.954 409.965 204.668C410.609 204.382 411.316 204.238 412.084 204.238C413.301 204.238 414.255 204.544 414.945 205.156C415.635 205.762 415.993 206.598 416.02 207.666V212.529C416.02 213.499 416.143 214.271 416.391 214.844V215H414.496ZM411.498 213.623C412.064 213.623 412.602 213.477 413.109 213.184C413.617 212.891 413.985 212.51 414.213 212.041V209.873H412.797C410.583 209.873 409.477 210.521 409.477 211.816C409.477 212.383 409.665 212.826 410.043 213.145C410.421 213.464 410.906 213.623 411.498 213.623ZM421.303 201.875V204.434H423.275V205.83H421.303V212.383C421.303 212.806 421.391 213.125 421.566 213.34C421.742 213.548 422.042 213.652 422.465 213.652C422.673 213.652 422.96 213.613 423.324 213.535V215C422.849 215.13 422.387 215.195 421.938 215.195C421.13 215.195 420.521 214.951 420.111 214.463C419.701 213.975 419.496 213.281 419.496 212.383V205.83H417.572V204.434H419.496V201.875H421.303ZM427.357 215H425.551V204.434H427.357V215ZM425.404 201.631C425.404 201.338 425.492 201.09 425.668 200.889C425.85 200.687 426.117 200.586 426.469 200.586C426.82 200.586 427.087 200.687 427.27 200.889C427.452 201.09 427.543 201.338 427.543 201.631C427.543 201.924 427.452 202.168 427.27 202.363C427.087 202.559 426.82 202.656 426.469 202.656C426.117 202.656 425.85 202.559 425.668 202.363C425.492 202.168 425.404 201.924 425.404 201.631ZM433.744 212.549L436.361 204.434H438.207L434.418 215H433.041L429.213 204.434H431.059L433.744 212.549ZM441.908 215H440.102V204.434H441.908V215ZM439.955 201.631C439.955 201.338 440.043 201.09 440.219 200.889C440.401 200.687 440.668 200.586 441.02 200.586C441.371 200.586 441.638 200.687 441.82 200.889C442.003 201.09 442.094 201.338 442.094 201.631C442.094 201.924 442.003 202.168 441.82 202.363C441.638 202.559 441.371 202.656 441.02 202.656C440.668 202.656 440.401 202.559 440.219 202.363C440.043 202.168 439.955 201.924 439.955 201.631ZM444.369 209.629C444.369 208.008 444.753 206.706 445.521 205.723C446.29 204.733 447.296 204.238 448.539 204.238C449.776 204.238 450.756 204.661 451.479 205.508V200H453.285V215H451.625L451.537 213.867C450.814 214.753 449.809 215.195 448.52 215.195C447.296 215.195 446.296 214.694 445.521 213.691C444.753 212.689 444.369 211.38 444.369 209.766V209.629ZM446.176 209.834C446.176 211.032 446.423 211.969 446.918 212.646C447.413 213.324 448.096 213.662 448.969 213.662C450.115 213.662 450.951 213.148 451.479 212.119V207.266C450.938 206.27 450.108 205.771 448.988 205.771C448.103 205.771 447.413 206.113 446.918 206.797C446.423 207.48 446.176 208.493 446.176 209.834ZM462.621 215C462.517 214.792 462.432 214.421 462.367 213.887C461.527 214.759 460.525 215.195 459.359 215.195C458.318 215.195 457.462 214.902 456.791 214.316C456.127 213.724 455.795 212.975 455.795 212.07C455.795 210.97 456.212 210.117 457.045 209.512C457.885 208.9 459.063 208.594 460.58 208.594H462.338V207.764C462.338 207.132 462.149 206.631 461.771 206.26C461.394 205.882 460.837 205.693 460.102 205.693C459.457 205.693 458.917 205.856 458.48 206.182C458.044 206.507 457.826 206.901 457.826 207.363H456.01C456.01 206.836 456.195 206.328 456.566 205.84C456.944 205.345 457.452 204.954 458.09 204.668C458.734 204.382 459.441 204.238 460.209 204.238C461.426 204.238 462.38 204.544 463.07 205.156C463.76 205.762 464.118 206.598 464.145 207.666V212.529C464.145 213.499 464.268 214.271 464.516 214.844V215H462.621ZM459.623 213.623C460.189 213.623 460.727 213.477 461.234 213.184C461.742 212.891 462.11 212.51 462.338 212.041V209.873H460.922C458.708 209.873 457.602 210.521 457.602 211.816C457.602 212.383 457.79 212.826 458.168 213.145C458.546 213.464 459.031 213.623 459.623 213.623ZM466.537 209.629C466.537 208.008 466.921 206.706 467.689 205.723C468.458 204.733 469.464 204.238 470.707 204.238C471.944 204.238 472.924 204.661 473.646 205.508V200H475.453V215H473.793L473.705 213.867C472.982 214.753 471.977 215.195 470.688 215.195C469.464 215.195 468.464 214.694 467.689 213.691C466.921 212.689 466.537 211.38 466.537 209.766V209.629ZM468.344 209.834C468.344 211.032 468.591 211.969 469.086 212.646C469.581 213.324 470.264 213.662 471.137 213.662C472.283 213.662 473.119 213.148 473.646 212.119V207.266C473.106 206.27 472.276 205.771 471.156 205.771C470.271 205.771 469.581 206.113 469.086 206.797C468.591 207.48 468.344 208.493 468.344 209.834ZM482.65 215.195C481.218 215.195 480.053 214.727 479.154 213.789C478.256 212.845 477.807 211.585 477.807 210.01V209.678C477.807 208.63 478.005 207.695 478.402 206.875C478.806 206.048 479.366 205.404 480.082 204.941C480.805 204.473 481.586 204.238 482.426 204.238C483.799 204.238 484.867 204.691 485.629 205.596C486.391 206.501 486.771 207.796 486.771 209.482V210.234H479.613C479.639 211.276 479.942 212.119 480.521 212.764C481.107 213.402 481.85 213.721 482.748 213.721C483.386 213.721 483.926 213.59 484.369 213.33C484.812 213.07 485.199 212.725 485.531 212.295L486.635 213.154C485.749 214.515 484.421 215.195 482.65 215.195ZM482.426 205.723C481.697 205.723 481.085 205.99 480.59 206.523C480.095 207.051 479.789 207.793 479.672 208.75H484.965V208.613C484.913 207.695 484.665 206.986 484.223 206.484C483.78 205.977 483.181 205.723 482.426 205.723ZM500.355 215C500.251 214.792 500.167 214.421 500.102 213.887C499.262 214.759 498.259 215.195 497.094 215.195C496.052 215.195 495.196 214.902 494.525 214.316C493.861 213.724 493.529 212.975 493.529 212.07C493.529 210.97 493.946 210.117 494.779 209.512C495.619 208.9 496.798 208.594 498.314 208.594H500.072V207.764C500.072 207.132 499.883 206.631 499.506 206.26C499.128 205.882 498.572 205.693 497.836 205.693C497.191 205.693 496.651 205.856 496.215 206.182C495.779 206.507 495.561 206.901 495.561 207.363H493.744C493.744 206.836 493.93 206.328 494.301 205.84C494.678 205.345 495.186 204.954 495.824 204.668C496.469 204.382 497.175 204.238 497.943 204.238C499.161 204.238 500.115 204.544 500.805 205.156C501.495 205.762 501.853 206.598 501.879 207.666V212.529C501.879 213.499 502.003 214.271 502.25 214.844V215H500.355ZM497.357 213.623C497.924 213.623 498.461 213.477 498.969 213.184C499.477 212.891 499.844 212.51 500.072 212.041V209.873H498.656C496.443 209.873 495.336 210.521 495.336 211.816C495.336 212.383 495.525 212.826 495.902 213.145C496.28 213.464 496.765 213.623 497.357 213.623ZM504.271 209.629C504.271 207.969 504.652 206.657 505.414 205.693C506.176 204.723 507.198 204.238 508.48 204.238C509.73 204.238 510.717 204.658 511.439 205.498L511.518 204.434H513.178V219.062H511.371V214.023C510.642 214.805 509.672 215.195 508.461 215.195C507.185 215.195 506.166 214.701 505.404 213.711C504.649 212.715 504.271 211.396 504.271 209.756V209.629ZM506.078 209.834C506.078 211.045 506.332 211.995 506.84 212.686C507.354 213.376 508.044 213.721 508.91 213.721C509.984 213.721 510.805 213.245 511.371 212.295V207.119C510.798 206.188 509.984 205.723 508.93 205.723C508.057 205.723 507.364 206.071 506.85 206.768C506.335 207.458 506.078 208.48 506.078 209.834ZM522.602 213.955C521.898 214.782 520.867 215.195 519.506 215.195C518.38 215.195 517.52 214.87 516.928 214.219C516.342 213.561 516.046 212.591 516.039 211.309V204.434H517.846V211.26C517.846 212.861 518.497 213.662 519.799 213.662C521.179 213.662 522.097 213.148 522.553 212.119V204.434H524.359V215H522.641L522.602 213.955ZM529.076 215H527.27V204.434H529.076V215ZM527.123 201.631C527.123 201.338 527.211 201.09 527.387 200.889C527.569 200.687 527.836 200.586 528.188 200.586C528.539 200.586 528.806 200.687 528.988 200.889C529.171 201.09 529.262 201.338 529.262 201.631C529.262 201.924 529.171 202.168 528.988 202.363C528.806 202.559 528.539 202.656 528.188 202.656C527.836 202.656 527.569 202.559 527.387 202.363C527.211 202.168 527.123 201.924 527.123 201.631Z" fill="#A8A8B3"/>
<path d="M958 173H1156C1160.42 173 1164 176.582 1164 181V235.8C1164 240.218 1160.42 243.8 1156 243.8H958V173Z" fill="#1DB863"/>
<path d="M1030.37 212.263H1025.74L1024.87 214.9H1022.06L1026.83 202.103H1029.27L1034.06 214.9H1031.25L1030.37 212.263ZM1026.46 210.128H1029.66L1028.05 205.337L1026.46 210.128ZM1034.69 210.075C1034.69 208.592 1035.02 207.412 1035.68 206.533C1036.35 205.654 1037.26 205.214 1038.42 205.214C1039.34 205.214 1040.11 205.56 1040.71 206.252V201.4H1043.26V214.9H1040.97L1040.84 213.889C1040.21 214.68 1039.4 215.076 1038.4 215.076C1037.28 215.076 1036.38 214.636 1035.7 213.757C1035.03 212.873 1034.69 211.645 1034.69 210.075ZM1037.23 210.259C1037.23 211.15 1037.39 211.833 1037.7 212.307C1038.01 212.782 1038.46 213.019 1039.05 213.019C1039.84 213.019 1040.39 212.688 1040.71 212.026V208.273C1040.4 207.611 1039.85 207.28 1039.07 207.28C1037.84 207.28 1037.23 208.273 1037.23 210.259ZM1047.91 214.9H1045.36V205.39H1047.91V214.9ZM1045.21 202.929C1045.21 202.548 1045.34 202.235 1045.59 201.989C1045.85 201.743 1046.2 201.62 1046.64 201.62C1047.07 201.62 1047.42 201.743 1047.67 201.989C1047.93 202.235 1048.06 202.548 1048.06 202.929C1048.06 203.316 1047.93 203.632 1047.66 203.879C1047.41 204.125 1047.06 204.248 1046.64 204.248C1046.21 204.248 1045.86 204.125 1045.6 203.879C1045.34 203.632 1045.21 203.316 1045.21 202.929ZM1053.97 213.028C1054.43 213.028 1054.82 212.899 1055.11 212.641C1055.4 212.383 1055.55 212.041 1055.57 211.613H1057.95C1057.94 212.257 1057.77 212.849 1057.42 213.388C1057.07 213.921 1056.6 214.337 1056 214.636C1055.4 214.929 1054.74 215.076 1054.01 215.076C1052.65 215.076 1051.58 214.645 1050.79 213.784C1050.01 212.917 1049.62 211.721 1049.62 210.198V210.031C1049.62 208.566 1050 207.397 1050.78 206.524C1051.56 205.651 1052.63 205.214 1053.99 205.214C1055.18 205.214 1056.13 205.554 1056.85 206.234C1057.57 206.908 1057.94 207.807 1057.95 208.932H1055.57C1055.55 208.44 1055.4 208.042 1055.11 207.737C1054.82 207.426 1054.43 207.271 1053.95 207.271C1053.36 207.271 1052.91 207.488 1052.6 207.921C1052.3 208.349 1052.16 209.046 1052.16 210.013V210.277C1052.16 211.255 1052.3 211.959 1052.6 212.386C1052.9 212.814 1053.36 213.028 1053.97 213.028ZM1062.08 214.9H1059.53V205.39H1062.08V214.9ZM1059.38 202.929C1059.38 202.548 1059.51 202.235 1059.76 201.989C1060.02 201.743 1060.36 201.62 1060.8 201.62C1061.24 201.62 1061.58 201.743 1061.84 201.989C1062.1 202.235 1062.23 202.548 1062.23 202.929C1062.23 203.316 1062.1 203.632 1061.83 203.879C1061.57 204.125 1061.23 204.248 1060.8 204.248C1060.38 204.248 1060.03 204.125 1059.77 203.879C1059.51 203.632 1059.38 203.316 1059.38 202.929ZM1063.78 210.057C1063.78 209.114 1063.96 208.273 1064.33 207.535C1064.69 206.796 1065.21 206.225 1065.89 205.821C1066.58 205.417 1067.37 205.214 1068.27 205.214C1069.56 205.214 1070.6 205.607 1071.41 206.392C1072.23 207.177 1072.68 208.244 1072.77 209.591L1072.79 210.242C1072.79 211.701 1072.38 212.873 1071.57 213.757C1070.76 214.636 1069.66 215.076 1068.29 215.076C1066.92 215.076 1065.83 214.636 1065 213.757C1064.19 212.879 1063.78 211.683 1063.78 210.171V210.057ZM1066.32 210.242C1066.32 211.144 1066.49 211.836 1066.83 212.316C1067.17 212.791 1067.66 213.028 1068.29 213.028C1068.91 213.028 1069.39 212.794 1069.73 212.325C1070.08 211.85 1070.25 211.094 1070.25 210.057C1070.25 209.172 1070.08 208.487 1069.73 208.001C1069.39 207.514 1068.9 207.271 1068.27 207.271C1067.65 207.271 1067.17 207.514 1066.83 208.001C1066.49 208.481 1066.32 209.228 1066.32 210.242ZM1076.69 205.39L1076.77 206.489C1077.45 205.639 1078.36 205.214 1079.51 205.214C1080.51 205.214 1081.26 205.51 1081.76 206.102C1082.25 206.694 1082.5 207.579 1082.51 208.756V214.9H1079.97V208.818C1079.97 208.279 1079.86 207.889 1079.62 207.649C1079.39 207.403 1079 207.28 1078.45 207.28C1077.74 207.28 1077.2 207.585 1076.84 208.194V214.9H1074.3V205.39H1076.69ZM1089.96 214.9C1089.84 214.671 1089.75 214.387 1089.7 214.047C1089.09 214.733 1088.29 215.076 1087.3 215.076C1086.37 215.076 1085.6 214.806 1084.98 214.267C1084.37 213.728 1084.07 213.048 1084.07 212.228C1084.07 211.22 1084.44 210.447 1085.18 209.908C1085.93 209.369 1087.02 209.096 1088.43 209.09H1089.6V208.546C1089.6 208.106 1089.48 207.754 1089.25 207.491C1089.03 207.227 1088.68 207.095 1088.19 207.095C1087.76 207.095 1087.43 207.198 1087.18 207.403C1086.94 207.608 1086.82 207.889 1086.82 208.247H1084.28C1084.28 207.696 1084.45 207.186 1084.79 206.717C1085.13 206.249 1085.61 205.882 1086.23 205.619C1086.85 205.349 1087.55 205.214 1088.32 205.214C1089.49 205.214 1090.42 205.51 1091.11 206.102C1091.8 206.688 1092.15 207.514 1092.15 208.581V212.703C1092.15 213.605 1092.28 214.288 1092.52 214.751V214.9H1089.96ZM1087.86 213.133C1088.23 213.133 1088.58 213.051 1088.89 212.887C1089.21 212.717 1089.44 212.492 1089.6 212.211V210.576H1088.65C1087.38 210.576 1086.7 211.015 1086.62 211.894L1086.61 212.044C1086.61 212.36 1086.72 212.621 1086.94 212.826C1087.17 213.031 1087.47 213.133 1087.86 213.133ZM1099.44 207.772C1099.09 207.725 1098.79 207.702 1098.53 207.702C1097.57 207.702 1096.94 208.027 1096.64 208.677V214.9H1094.1V205.39H1096.5L1096.57 206.524C1097.08 205.651 1097.78 205.214 1098.68 205.214C1098.97 205.214 1099.23 205.253 1099.48 205.329L1099.44 207.772Z" fill="white"/>
<path d="M290.684 306.113H285.562V320H281.449V306.113H276.422V302.938H290.684V306.113ZM289.312 313.543C289.312 312.277 289.559 311.152 290.051 310.168C290.543 309.176 291.25 308.414 292.172 307.883C293.094 307.352 294.176 307.086 295.418 307.086C297.316 307.086 298.812 307.676 299.906 308.855C301 310.027 301.547 311.625 301.547 313.648V313.789C301.547 315.766 300.996 317.336 299.895 318.5C298.801 319.656 297.316 320.234 295.441 320.234C293.637 320.234 292.188 319.695 291.094 318.617C290 317.531 289.41 316.062 289.324 314.211L289.312 313.543ZM293.262 313.789C293.262 314.961 293.445 315.82 293.812 316.367C294.18 316.914 294.723 317.188 295.441 317.188C296.848 317.188 297.566 316.105 297.598 313.941V313.543C297.598 311.27 296.871 310.133 295.418 310.133C294.098 310.133 293.383 311.113 293.273 313.074L293.262 313.789ZM311.004 314.176H303.961V311.117H311.004V314.176ZM314.273 320V302.938H319.77C321.277 302.938 322.633 303.281 323.836 303.969C325.039 304.648 325.977 305.613 326.648 306.863C327.328 308.105 327.672 309.5 327.68 311.047V311.832C327.68 313.395 327.348 314.797 326.684 316.039C326.027 317.273 325.098 318.242 323.895 318.945C322.699 319.641 321.363 319.992 319.887 320H314.273ZM318.387 306.113V316.836H319.816C320.996 316.836 321.902 316.418 322.535 315.582C323.168 314.738 323.484 313.488 323.484 311.832V311.094C323.484 309.445 323.168 308.203 322.535 307.367C321.902 306.531 320.98 306.113 319.77 306.113H318.387ZM329.109 313.543C329.109 312.277 329.355 311.152 329.848 310.168C330.34 309.176 331.047 308.414 331.969 307.883C332.891 307.352 333.973 307.086 335.215 307.086C337.113 307.086 338.609 307.676 339.703 308.855C340.797 310.027 341.344 311.625 341.344 313.648V313.789C341.344 315.766 340.793 317.336 339.691 318.5C338.598 319.656 337.113 320.234 335.238 320.234C333.434 320.234 331.984 319.695 330.891 318.617C329.797 317.531 329.207 316.062 329.121 314.211L329.109 313.543ZM333.059 313.789C333.059 314.961 333.242 315.82 333.609 316.367C333.977 316.914 334.52 317.188 335.238 317.188C336.645 317.188 337.363 316.105 337.395 313.941V313.543C337.395 311.27 336.668 310.133 335.215 310.133C333.895 310.133 333.18 311.113 333.07 313.074L333.059 313.789ZM349.723 316.438C349.723 316.102 349.547 315.832 349.195 315.629C348.844 315.426 348.176 315.215 347.191 314.996C346.207 314.777 345.395 314.492 344.754 314.141C344.113 313.781 343.625 313.348 343.289 312.84C342.953 312.332 342.785 311.75 342.785 311.094C342.785 309.93 343.266 308.973 344.227 308.223C345.188 307.465 346.445 307.086 348 307.086C349.672 307.086 351.016 307.465 352.031 308.223C353.047 308.98 353.555 309.977 353.555 311.211H349.594C349.594 310.195 349.059 309.688 347.988 309.688C347.574 309.688 347.227 309.805 346.945 310.039C346.664 310.266 346.523 310.551 346.523 310.895C346.523 311.246 346.695 311.531 347.039 311.75C347.383 311.969 347.93 312.148 348.68 312.289C349.438 312.43 350.102 312.598 350.672 312.793C352.578 313.449 353.531 314.625 353.531 316.32C353.531 317.477 353.016 318.418 351.984 319.145C350.961 319.871 349.633 320.234 348 320.234C346.914 320.234 345.945 320.039 345.094 319.648C344.242 319.258 343.578 318.727 343.102 318.055C342.625 317.383 342.387 316.676 342.387 315.934H346.078C346.094 316.52 346.289 316.949 346.664 317.223C347.039 317.488 347.52 317.621 348.105 317.621C348.645 317.621 349.047 317.512 349.312 317.293C349.586 317.074 349.723 316.789 349.723 316.438Z" fill="#494D4B"/>
<rect width="1440" height="104" fill="white"/>
<line y1="103.5" x2="1016" y2="103.5" stroke="#E6E8EB"/>
<path d="M1276.41 52.9091C1276.41 49.6875 1274.52 47.679 1271.91 47.679C1269.31 47.679 1267.42 49.6875 1267.42 52.9091C1267.42 56.1307 1269.31 58.1392 1271.91 58.1392C1272.58 58.1392 1273.2 58.0099 1273.75 57.7614L1274.64 58.9545H1275.99L1274.66 57.1896C1275.75 56.2997 1276.41 54.8182 1276.41 52.9091ZM1271.52 54.8182L1273.03 56.7969C1272.68 56.9212 1272.31 56.9858 1271.91 56.9858C1270.06 56.9858 1268.61 55.554 1268.61 52.9091C1268.61 50.2642 1270.06 48.8324 1271.91 48.8324C1273.76 48.8324 1275.21 50.2642 1275.21 52.9091C1275.21 54.4453 1274.73 55.5689 1273.95 56.245L1272.87 54.8182H1271.52ZM1283.13 54.8778C1283.13 56.3097 1282.04 56.9659 1281.17 56.9659C1280.19 56.9659 1279.5 56.25 1279.5 55.1364V50.3636H1278.32V55.2159C1278.32 57.1648 1279.36 58.0994 1280.79 58.0994C1281.94 58.0994 1282.7 57.483 1283.05 56.7074H1283.13V58H1284.31V50.3636H1283.13V54.8778ZM1288.7 58.179C1290.04 58.179 1290.73 57.4631 1290.97 56.9659H1291.03V58H1292.2V52.9688C1292.2 50.5426 1290.35 50.2642 1289.38 50.2642C1288.23 50.2642 1286.91 50.6619 1286.32 52.054L1287.43 52.4517C1287.69 51.8949 1288.3 51.2983 1289.42 51.2983C1290.5 51.2983 1291.03 51.87 1291.03 52.8494V52.8892C1291.03 53.456 1290.45 53.4062 1289.06 53.5852C1287.64 53.7692 1286.1 54.0824 1286.1 55.8324C1286.1 57.3239 1287.25 58.179 1288.7 58.179ZM1288.88 57.125C1287.95 57.125 1287.27 56.7074 1287.27 55.892C1287.27 54.9972 1288.09 54.7188 1289 54.5994C1289.5 54.5398 1290.83 54.4006 1291.03 54.1619V55.2358C1291.03 56.1903 1290.27 57.125 1288.88 57.125ZM1296.1 56.608H1294.82L1294.76 57.1648C1294.62 58.5121 1294.34 59.8544 1294.21 60.4858H1295.1C1295.34 59.8097 1295.85 58.2784 1296.02 57.1449L1296.1 56.608ZM1305.77 47.8182H1304.53L1301.99 49.5085V50.7614L1304.47 49.1108H1304.53V58H1305.77V47.8182ZM1318.38 50.3636H1319.57C1319.52 48.8274 1318.1 47.679 1316.13 47.679C1314.18 47.679 1312.65 48.8125 1312.65 50.5227C1312.65 51.8949 1313.65 52.7102 1315.24 53.1676L1316.49 53.5256C1317.56 53.8239 1318.52 54.2017 1318.52 55.2159C1318.52 56.3295 1317.44 57.0653 1316.03 57.0653C1314.82 57.0653 1313.75 56.5284 1313.65 55.375H1312.37C1312.49 57.0455 1313.85 58.179 1316.03 58.179C1318.38 58.179 1319.71 56.8864 1319.71 55.2358C1319.71 53.3267 1317.9 52.7102 1316.85 52.4318L1315.81 52.1534C1315.06 51.9545 1313.85 51.5568 1313.85 50.4631C1313.85 49.4886 1314.74 48.7727 1316.09 48.7727C1317.33 48.7727 1318.26 49.3594 1318.38 50.3636ZM1324.78 58.1591C1326.33 58.1591 1327.47 57.3835 1327.82 56.2301L1326.69 55.9119C1326.39 56.7074 1325.7 57.1051 1324.78 57.1051C1323.4 57.1051 1322.45 56.2152 1322.4 54.5795H1327.94V54.0824C1327.94 51.2386 1326.25 50.2642 1324.66 50.2642C1322.59 50.2642 1321.22 51.8949 1321.22 54.2415C1321.22 56.5881 1322.57 58.1591 1324.78 58.1591ZM1322.4 53.5653C1322.48 52.3771 1323.32 51.3182 1324.66 51.3182C1325.93 51.3182 1326.75 52.2727 1326.75 53.5653H1322.4ZM1333.05 50.3636H1331.42V48.5341H1330.25V50.3636H1329.09V51.358H1330.25V56.1307C1330.25 57.4631 1331.32 58.0994 1332.31 58.0994C1332.75 58.0994 1333.03 58.0199 1333.19 57.9602L1332.95 56.9062C1332.85 56.9261 1332.69 56.9659 1332.43 56.9659C1331.92 56.9659 1331.42 56.8068 1331.42 55.8125V51.358H1333.05V50.3636ZM1337.93 58.1591C1339.48 58.1591 1340.62 57.3835 1340.98 56.2301L1339.84 55.9119C1339.54 56.7074 1338.85 57.1051 1337.93 57.1051C1336.56 57.1051 1335.61 56.2152 1335.55 54.5795H1341.1V54.0824C1341.1 51.2386 1339.41 50.2642 1337.81 50.2642C1335.75 50.2642 1334.37 51.8949 1334.37 54.2415C1334.37 56.5881 1335.73 58.1591 1337.93 58.1591ZM1335.55 53.5653C1335.63 52.3771 1336.47 51.3182 1337.81 51.3182C1339.09 51.3182 1339.9 52.2727 1339.9 53.5653H1335.55ZM1342.88 58H1344.05V53.2273C1344.05 52.1087 1344.87 51.3182 1345.78 51.3182C1346.67 51.3182 1347.3 51.8999 1347.3 52.7699V58H1348.49V53.0284C1348.49 52.044 1349.1 51.3182 1350.18 51.3182C1351.01 51.3182 1351.73 51.7607 1351.73 52.8892V58H1352.9V52.8892C1352.9 51.0945 1351.94 50.2642 1350.58 50.2642C1349.48 50.2642 1348.68 50.7663 1348.29 51.5568H1348.21C1347.83 50.7415 1347.17 50.2642 1346.16 50.2642C1345.17 50.2642 1344.43 50.7415 1344.11 51.5568H1344.01V50.3636H1342.88V58ZM1355.21 58H1356.34V56.8267H1356.48C1356.74 57.2443 1357.24 58.1591 1358.71 58.1591C1360.62 58.1591 1361.95 56.6278 1361.95 54.2017C1361.95 51.7955 1360.62 50.2642 1358.69 50.2642C1357.2 50.2642 1356.74 51.179 1356.48 51.5767H1356.38V47.8182H1355.21V58ZM1356.36 54.1818C1356.36 52.4716 1357.12 51.3182 1358.55 51.3182C1360.04 51.3182 1360.78 52.571 1360.78 54.1818C1360.78 55.8125 1360.02 57.1051 1358.55 57.1051C1357.14 57.1051 1356.36 55.9119 1356.36 54.1818ZM1363.74 58H1364.92V53.1676C1364.92 52.1335 1365.73 51.3778 1366.85 51.3778C1367.16 51.3778 1367.48 51.4375 1367.56 51.4574V50.2642C1367.43 50.2543 1367.12 50.2443 1366.95 50.2443C1366.03 50.2443 1365.24 50.7614 1364.96 51.517H1364.88V50.3636H1363.74V58ZM1371.82 58.1591C1373.89 58.1591 1375.28 56.5881 1375.28 54.2216C1375.28 51.8352 1373.89 50.2642 1371.82 50.2642C1369.75 50.2642 1368.36 51.8352 1368.36 54.2216C1368.36 56.5881 1369.75 58.1591 1371.82 58.1591ZM1371.82 57.1051C1370.25 57.1051 1369.54 55.7528 1369.54 54.2216C1369.54 52.6903 1370.25 51.3182 1371.82 51.3182C1373.39 51.3182 1374.11 52.6903 1374.11 54.2216C1374.11 55.7528 1373.39 57.1051 1371.82 57.1051Z" fill="#808080"/>
<g filter="url(#filter0_d_202_26)">
<path d="M93.6906 52.6901L89.7708 35.1765C89.6267 34.5362 89.2318 33.9786 88.6728 33.626C88.1139 33.2734 87.4364 33.1547 86.7891 33.2959L69.0932 37.1753C68.7726 37.2456 68.4692 37.3776 68.2002 37.564C67.9313 37.7503 67.702 37.9873 67.5255 38.2613C67.3491 38.5353 67.2289 38.8411 67.1719 39.161C67.1148 39.481 67.122 39.809 67.193 40.1263L68.8353 47.4639H58.75C58.0872 47.4646 57.4517 47.7256 56.9831 48.1894C56.5144 48.6532 56.2507 49.2822 56.25 49.9381V67.8763C56.2507 68.5323 56.5144 69.1612 56.9831 69.625C57.4517 70.0888 58.0872 70.3498 58.75 70.3505H76.875C77.5378 70.3498 78.1733 70.0888 78.6419 69.625C79.1106 69.1612 79.3743 68.5323 79.375 67.8763V58.3626L91.7904 55.641C92.4374 55.4984 93.0008 55.1076 93.357 54.5544C93.7133 54.0012 93.8332 53.3307 93.6906 52.6901V52.6901ZM76.875 67.8763H58.75V49.9381H69.3891L71.1128 57.6396C71.2359 58.1887 71.5442 58.6799 71.9869 59.0326C72.4297 59.3852 72.9805 59.5781 73.5487 59.5797C73.7323 59.5796 73.9152 59.5597 74.0944 59.5203L76.8756 58.9105L76.8766 67.8763H76.875ZM91.25 53.2252L73.5537 57.1046L69.6339 39.5909L87.33 35.7113L91.2513 53.2246L91.25 53.2252Z" fill="#494D4B"/>
<path d="M61.25 52.4124H64.375V55.5052H61.25V52.4124Z" fill="#7B5DD5"/>
<path d="M61.25 62.3093H64.375V65.4021H61.25V62.3093Z" fill="#7B5DD5"/>
<path d="M71.25 62.3093H74.375V65.4021H71.25V62.3093Z" fill="#7B5DD5"/>
<path d="M66.25 57.3608H69.375V60.4536H66.25V57.3608Z" fill="#1DB863"/>
<path d="M72.6137 41.4768L75.6648 40.8085L76.3401 43.8282L73.289 44.4965L72.6137 41.4768Z" fill="#1DB863"/>
<path d="M84.5413 48.9941L87.5924 48.3253L88.2681 51.3449L85.217 52.0137L84.5413 48.9941Z" fill="#7B5DD5"/>
<path d="M78.5784 45.2326L81.6294 44.5638L82.3052 47.5833L79.2543 48.2521L78.5784 45.2326Z" fill="#1DB863"/>
</g>
<path d="M134.597 44.3936C133.281 44.3936 132.171 44.9583 131.268 46.0877V38H127.099V60.6279H131.268V48.9309C131.69 48.2336 132.279 47.885 133.035 47.885C133.684 47.885 134.15 48.0961 134.435 48.5185C134.73 48.9309 134.877 49.6037 134.877 50.5367V60.6279H139.061V50.4925C139.051 48.4694 138.668 46.9471 137.912 45.9257C137.155 44.9043 136.051 44.3936 134.597 44.3936Z" fill="#7B5DD5"/>
<path fill-rule="evenodd" clip-rule="evenodd" d="M143.48 59.0074C144.678 60.2842 146.348 60.9226 148.489 60.9226C149.628 60.9226 150.684 60.7065 151.656 60.2744C152.629 59.8324 153.37 59.2579 153.881 58.5508L152.246 56.0316C151.313 56.9843 150.149 57.4606 148.754 57.4606C147.792 57.4606 147.08 57.1905 146.618 56.6504C146.157 56.1004 145.896 55.2361 145.837 54.0576H154.131V52.0099C154.112 49.4957 153.596 47.6002 152.584 46.3234C151.573 45.0369 150.065 44.3936 148.062 44.3936C146.009 44.3936 144.433 45.0761 143.333 46.4413C142.233 47.8064 141.683 49.7461 141.683 52.2603V53.5272C141.683 55.904 142.282 57.7307 143.48 59.0074ZM150.036 51.1407H145.867C145.926 49.9916 146.117 49.1568 146.441 48.6363C146.775 48.1158 147.306 47.8555 148.032 47.8555C148.759 47.8555 149.27 48.1011 149.564 48.5921C149.859 49.0832 150.016 49.805 150.036 50.7577V51.1407Z" fill="#7B5DD5"/>
<path fill-rule="evenodd" clip-rule="evenodd" d="M170.66 59.3905C170.778 59.9699 170.896 60.3824 171.014 60.6279H175.212V60.3775C174.839 59.6016 174.643 58.5262 174.623 57.1513V49.6528C174.623 47.9636 174.142 46.6672 173.179 45.7636C172.227 44.8503 170.876 44.3936 169.128 44.3936C167.439 44.3936 166.039 44.8748 164.93 45.8373C163.83 46.7899 163.28 48.0028 163.28 49.476H167.449C167.449 48.2582 167.969 47.6493 169.01 47.6493C169.482 47.6493 169.84 47.7966 170.086 48.0912C170.331 48.3859 170.454 48.8917 170.454 49.6086V50.8903H169.187C167.184 50.9099 165.647 51.3764 164.576 52.2898C163.515 53.2031 162.985 54.4946 162.985 56.1642C162.985 57.5686 163.422 58.7128 164.296 59.5967C165.18 60.4806 166.29 60.9226 167.626 60.9226C168.902 60.9226 169.914 60.4119 170.66 59.3905ZM169.732 57.3722C169.408 57.5588 169.015 57.6521 168.554 57.6521C167.631 57.6521 167.169 57.0629 167.169 55.8843C167.169 55.1281 167.37 54.5241 167.773 54.0723C168.185 53.6205 168.745 53.3947 169.452 53.3947H170.454V56.7093C170.297 56.9646 170.056 57.1856 169.732 57.3722Z" fill="#7B5DD5"/>
<path fill-rule="evenodd" clip-rule="evenodd" d="M188.766 58.9191C189.63 57.5834 190.062 55.6633 190.062 53.159V51.9362C190.042 49.3827 189.6 47.4872 188.736 46.2498C187.882 45.0123 186.605 44.3936 184.906 44.3936C183.531 44.3936 182.446 44.9779 181.65 46.1466L181.503 44.6882H177.643V66.7563H181.812V59.3463C182.598 60.3971 183.639 60.9226 184.935 60.9226C186.634 60.9226 187.911 60.2547 188.766 58.9191ZM185.392 48.8426C185.736 49.4809 185.908 50.5711 185.908 52.113V53.159C185.908 54.6321 185.746 55.7174 185.422 56.4147C185.107 57.112 184.538 57.4606 183.713 57.4606C182.819 57.4606 182.185 57.1169 181.812 56.4294V48.9604C182.205 48.2435 182.829 47.885 183.683 47.885C184.489 47.885 185.058 48.2042 185.392 48.8426Z" fill="#7B5DD5"/>
<path fill-rule="evenodd" clip-rule="evenodd" d="M203.704 58.9191C204.568 57.5834 205 55.6633 205 53.159V51.9362C204.98 49.3827 204.538 47.4872 203.674 46.2498C202.82 45.0123 201.543 44.3936 199.844 44.3936C198.469 44.3936 197.384 44.9779 196.588 46.1466L196.441 44.6882H192.581V66.7563H196.75V59.3463C197.536 60.3971 198.577 60.9226 199.873 60.9226C201.572 60.9226 202.849 60.2547 203.704 58.9191ZM200.33 48.8426C200.674 49.4809 200.846 50.5711 200.846 52.113V53.159C200.846 54.6321 200.684 55.7174 200.36 56.4147C200.045 57.112 199.476 57.4606 198.651 57.4606C197.757 57.4606 197.123 57.1169 196.75 56.4294V48.9604C197.143 48.2435 197.767 47.885 198.621 47.885C199.426 47.885 199.996 48.2042 200.33 48.8426Z" fill="#7B5DD5"/>
<path d="M119.865 45.064L119.01 41.2399L114.941 42.1505L115.797 45.9746L114 46.3768L114.685 49.4389L116.482 49.0367L118.333 57.3029C119.035 60.3058 120.699 61.5134 123.325 60.9257C124.13 60.7455 124.849 60.4488 125.481 60.0356L124.802 56.8664C124.568 56.9893 124.254 57.0947 123.861 57.1826C123.382 57.2899 123.03 57.2478 122.806 57.0564C122.592 56.8628 122.416 56.4594 122.279 55.846L120.551 48.1261L122.635 47.6595L121.95 44.5974L119.865 45.064Z" fill="#7B5DD5"/>
<line x1="259.5" y1="40" x2="259.5" y2="64" stroke="#E6E8EB"/>
<path d="M276.5 368C276.5 363.858 279.858 360.5 284 360.5H1156C1160.14 360.5 1163.5 363.858 1163.5 368V420C1163.5 424.142 1160.14 427.5 1156 427.5H284C279.858 427.5 276.5 424.142 276.5 420V368Z" fill="white" stroke="#E6E8EB"/>
<path d="M368.502 396.289H362.545L361.207 400H359.273L364.703 385.781H366.344L371.783 400H369.859L368.502 396.289ZM363.111 394.746H367.945L365.523 388.096L363.111 394.746ZM378.521 391.055C378.248 391.009 377.952 390.986 377.633 390.986C376.448 390.986 375.644 391.491 375.221 392.5V400H373.414V389.434H375.172L375.201 390.654C375.794 389.71 376.633 389.238 377.721 389.238C378.072 389.238 378.339 389.284 378.521 389.375V391.055ZM385.299 391.055C385.025 391.009 384.729 390.986 384.41 390.986C383.225 390.986 382.421 391.491 381.998 392.5V400H380.191V389.434H381.949L381.979 390.654C382.571 389.71 383.411 389.238 384.498 389.238C384.85 389.238 385.117 389.284 385.299 389.375V391.055ZM393.492 398.955C392.789 399.782 391.757 400.195 390.396 400.195C389.27 400.195 388.411 399.87 387.818 399.219C387.232 398.561 386.936 397.591 386.93 396.309V389.434H388.736V396.26C388.736 397.861 389.387 398.662 390.689 398.662C392.07 398.662 392.988 398.148 393.443 397.119V389.434H395.25V400H393.531L393.492 398.955ZM399.703 389.434L399.752 390.605C400.527 389.694 401.572 389.238 402.887 389.238C404.365 389.238 405.37 389.805 405.904 390.938C406.256 390.43 406.712 390.02 407.271 389.707C407.838 389.395 408.505 389.238 409.273 389.238C411.591 389.238 412.77 390.465 412.809 392.92V400H411.002V393.027C411.002 392.272 410.829 391.709 410.484 391.338C410.139 390.96 409.56 390.771 408.746 390.771C408.076 390.771 407.519 390.973 407.076 391.377C406.633 391.774 406.376 392.311 406.305 392.988V400H404.488V393.076C404.488 391.54 403.736 390.771 402.232 390.771C401.048 390.771 400.237 391.276 399.801 392.285V400H397.994V389.434H399.703ZM422.066 400C421.962 399.792 421.878 399.421 421.812 398.887C420.973 399.759 419.97 400.195 418.805 400.195C417.763 400.195 416.907 399.902 416.236 399.316C415.572 398.724 415.24 397.975 415.24 397.07C415.24 395.97 415.657 395.117 416.49 394.512C417.33 393.9 418.508 393.594 420.025 393.594H421.783V392.764C421.783 392.132 421.594 391.631 421.217 391.26C420.839 390.882 420.283 390.693 419.547 390.693C418.902 390.693 418.362 390.856 417.926 391.182C417.49 391.507 417.271 391.901 417.271 392.363H415.455C415.455 391.836 415.641 391.328 416.012 390.84C416.389 390.345 416.897 389.954 417.535 389.668C418.18 389.382 418.886 389.238 419.654 389.238C420.872 389.238 421.826 389.544 422.516 390.156C423.206 390.762 423.564 391.598 423.59 392.666V397.529C423.59 398.499 423.714 399.271 423.961 399.844V400H422.066ZM419.068 398.623C419.635 398.623 420.172 398.477 420.68 398.184C421.188 397.891 421.555 397.51 421.783 397.041V394.873H420.367C418.154 394.873 417.047 395.521 417.047 396.816C417.047 397.383 417.236 397.826 417.613 398.145C417.991 398.464 418.476 398.623 419.068 398.623ZM431.529 391.055C431.256 391.009 430.96 390.986 430.641 390.986C429.456 390.986 428.652 391.491 428.229 392.5V400H426.422V389.434H428.18L428.209 390.654C428.801 389.71 429.641 389.238 430.729 389.238C431.08 389.238 431.347 389.284 431.529 389.375V391.055ZM444.684 400C444.579 399.792 444.495 399.421 444.43 398.887C443.59 399.759 442.587 400.195 441.422 400.195C440.38 400.195 439.524 399.902 438.854 399.316C438.189 398.724 437.857 397.975 437.857 397.07C437.857 395.97 438.274 395.117 439.107 394.512C439.947 393.9 441.126 393.594 442.643 393.594H444.4V392.764C444.4 392.132 444.212 391.631 443.834 391.26C443.456 390.882 442.9 390.693 442.164 390.693C441.52 390.693 440.979 390.856 440.543 391.182C440.107 391.507 439.889 391.901 439.889 392.363H438.072C438.072 391.836 438.258 391.328 438.629 390.84C439.007 390.345 439.514 389.954 440.152 389.668C440.797 389.382 441.503 389.238 442.271 389.238C443.489 389.238 444.443 389.544 445.133 390.156C445.823 390.762 446.181 391.598 446.207 392.666V397.529C446.207 398.499 446.331 399.271 446.578 399.844V400H444.684ZM441.686 398.623C442.252 398.623 442.789 398.477 443.297 398.184C443.805 397.891 444.173 397.51 444.4 397.041V394.873H442.984C440.771 394.873 439.664 395.521 439.664 396.816C439.664 397.383 439.853 397.826 440.23 398.145C440.608 398.464 441.093 398.623 441.686 398.623ZM455.191 397.197C455.191 396.709 455.006 396.331 454.635 396.064C454.27 395.791 453.629 395.557 452.711 395.361C451.799 395.166 451.074 394.932 450.533 394.658C449.999 394.385 449.602 394.059 449.342 393.682C449.088 393.304 448.961 392.855 448.961 392.334C448.961 391.468 449.326 390.736 450.055 390.137C450.79 389.538 451.728 389.238 452.867 389.238C454.065 389.238 455.035 389.548 455.777 390.166C456.526 390.785 456.9 391.576 456.9 392.539H455.084C455.084 392.044 454.872 391.618 454.449 391.26C454.033 390.902 453.505 390.723 452.867 390.723C452.21 390.723 451.695 390.866 451.324 391.152C450.953 391.439 450.768 391.813 450.768 392.275C450.768 392.712 450.94 393.04 451.285 393.262C451.63 393.483 452.252 393.695 453.15 393.896C454.055 394.098 454.788 394.339 455.348 394.619C455.908 394.899 456.321 395.238 456.588 395.635C456.861 396.025 456.998 396.504 456.998 397.07C456.998 398.014 456.62 398.773 455.865 399.346C455.11 399.912 454.13 400.195 452.926 400.195C452.079 400.195 451.331 400.046 450.68 399.746C450.029 399.447 449.518 399.03 449.146 398.496C448.782 397.956 448.6 397.373 448.6 396.748H450.406C450.439 397.354 450.68 397.835 451.129 398.193C451.585 398.545 452.184 398.721 452.926 398.721C453.609 398.721 454.156 398.584 454.566 398.311C454.983 398.031 455.191 397.66 455.191 397.197ZM466.012 389.434L466.061 390.605C466.835 389.694 467.88 389.238 469.195 389.238C470.673 389.238 471.679 389.805 472.213 390.938C472.564 390.43 473.02 390.02 473.58 389.707C474.146 389.395 474.814 389.238 475.582 389.238C477.9 389.238 479.078 390.465 479.117 392.92V400H477.311V393.027C477.311 392.272 477.138 391.709 476.793 391.338C476.448 390.96 475.868 390.771 475.055 390.771C474.384 390.771 473.827 390.973 473.385 391.377C472.942 391.774 472.685 392.311 472.613 392.988V400H470.797V393.076C470.797 391.54 470.045 390.771 468.541 390.771C467.356 390.771 466.546 391.276 466.109 392.285V400H464.303V389.434H466.012ZM488.375 400C488.271 399.792 488.186 399.421 488.121 398.887C487.281 399.759 486.279 400.195 485.113 400.195C484.072 400.195 483.215 399.902 482.545 399.316C481.881 398.724 481.549 397.975 481.549 397.07C481.549 395.97 481.965 395.117 482.799 394.512C483.639 393.9 484.817 393.594 486.334 393.594H488.092V392.764C488.092 392.132 487.903 391.631 487.525 391.26C487.148 390.882 486.591 390.693 485.855 390.693C485.211 390.693 484.671 390.856 484.234 391.182C483.798 391.507 483.58 391.901 483.58 392.363H481.764C481.764 391.836 481.949 391.328 482.32 390.84C482.698 390.345 483.206 389.954 483.844 389.668C484.488 389.382 485.195 389.238 485.963 389.238C487.18 389.238 488.134 389.544 488.824 390.156C489.514 390.762 489.872 391.598 489.898 392.666V397.529C489.898 398.499 490.022 399.271 490.27 399.844V400H488.375ZM485.377 398.623C485.943 398.623 486.48 398.477 486.988 398.184C487.496 397.891 487.864 397.51 488.092 397.041V394.873H486.676C484.462 394.873 483.355 395.521 483.355 396.816C483.355 397.383 483.544 397.826 483.922 398.145C484.299 398.464 484.785 398.623 485.377 398.623ZM494.693 400H492.887V385H494.693V400ZM504.117 400C504.013 399.792 503.928 399.421 503.863 398.887C503.023 399.759 502.021 400.195 500.855 400.195C499.814 400.195 498.958 399.902 498.287 399.316C497.623 398.724 497.291 397.975 497.291 397.07C497.291 395.97 497.708 395.117 498.541 394.512C499.381 393.9 500.559 393.594 502.076 393.594H503.834V392.764C503.834 392.132 503.645 391.631 503.268 391.26C502.89 390.882 502.333 390.693 501.598 390.693C500.953 390.693 500.413 390.856 499.977 391.182C499.54 391.507 499.322 391.901 499.322 392.363H497.506C497.506 391.836 497.691 391.328 498.062 390.84C498.44 390.345 498.948 389.954 499.586 389.668C500.23 389.382 500.937 389.238 501.705 389.238C502.923 389.238 503.876 389.544 504.566 390.156C505.257 390.762 505.615 391.598 505.641 392.666V397.529C505.641 398.499 505.764 399.271 506.012 399.844V400H504.117ZM501.119 398.623C501.686 398.623 502.223 398.477 502.73 398.184C503.238 397.891 503.606 397.51 503.834 397.041V394.873H502.418C500.204 394.873 499.098 395.521 499.098 396.816C499.098 397.383 499.286 397.826 499.664 398.145C500.042 398.464 500.527 398.623 501.119 398.623ZM514.625 397.197C514.625 396.709 514.439 396.331 514.068 396.064C513.704 395.791 513.062 395.557 512.145 395.361C511.233 395.166 510.507 394.932 509.967 394.658C509.433 394.385 509.036 394.059 508.775 393.682C508.521 393.304 508.395 392.855 508.395 392.334C508.395 391.468 508.759 390.736 509.488 390.137C510.224 389.538 511.161 389.238 512.301 389.238C513.499 389.238 514.469 389.548 515.211 390.166C515.96 390.785 516.334 391.576 516.334 392.539H514.518C514.518 392.044 514.306 391.618 513.883 391.26C513.466 390.902 512.939 390.723 512.301 390.723C511.643 390.723 511.129 390.866 510.758 391.152C510.387 391.439 510.201 391.813 510.201 392.275C510.201 392.712 510.374 393.04 510.719 393.262C511.064 393.483 511.686 393.695 512.584 393.896C513.489 394.098 514.221 394.339 514.781 394.619C515.341 394.899 515.755 395.238 516.021 395.635C516.295 396.025 516.432 396.504 516.432 397.07C516.432 398.014 516.054 398.773 515.299 399.346C514.544 399.912 513.564 400.195 512.359 400.195C511.513 400.195 510.764 400.046 510.113 399.746C509.462 399.447 508.951 399.03 508.58 398.496C508.215 397.956 508.033 397.373 508.033 396.748H509.84C509.872 397.354 510.113 397.835 510.562 398.193C511.018 398.545 511.617 398.721 512.359 398.721C513.043 398.721 513.59 398.584 514 398.311C514.417 398.031 514.625 397.66 514.625 397.197Z" fill="#525252"/>
<rect x="303" y="380" width="27" height="27" rx="7" stroke="#7B5DD5" stroke-width="2"/>
<path d="M1105.63 406.656C1105.62 407.026 1105.77 407.381 1106.03 407.645C1106.28 407.909 1106.64 408.059 1107.01 408.062H1122.99C1123.36 408.059 1123.72 407.909 1123.98 407.645C1124.23 407.381 1124.38 407.026 1124.38 406.656V387.906H1105.63V406.656ZM1107.5 389.781H1122.5V406.188H1107.5V389.781Z" fill="#666666"/>
<path d="M1109.84 391.656H1111.72V403.375H1109.84V391.656Z" fill="#666666"/>
<path d="M1114.06 391.656H1115.94V403.375H1114.06V391.656Z" fill="#666666"/>
<path d="M1118.28 391.656H1120.16V403.375H1118.28V391.656Z" fill="#666666"/>
<path d="M1119.22 384.156V381.344C1119.22 380.555 1118.66 379.938 1117.95 379.938H1112.05C1111.34 379.938 1110.78 380.555 1110.78 381.344V384.156H1103.75V386.031H1126.25V384.156H1119.22ZM1112.66 381.812H1117.34V384.156H1112.66V381.812Z" fill="#666666"/>
<path d="M276.5 548C276.5 543.858 279.858 540.5 284 540.5H1156C1160.14 540.5 1163.5 543.858 1163.5 548V600C1163.5 604.142 1160.14 607.5 1156 607.5H284C279.858 607.5 276.5 604.142 276.5 600V548Z" fill="white" stroke="#E6E8EB"/>
<path d="M369.502 576.289H363.545L362.207 580H360.273L365.703 565.781H367.344L372.783 580H370.859L369.502 576.289ZM364.111 574.746H368.945L366.523 568.096L364.111 574.746ZM379.521 571.055C379.248 571.009 378.952 570.986 378.633 570.986C377.448 570.986 376.644 571.491 376.221 572.5V580H374.414V569.434H376.172L376.201 570.654C376.794 569.71 377.633 569.238 378.721 569.238C379.072 569.238 379.339 569.284 379.521 569.375V571.055ZM386.299 571.055C386.025 571.009 385.729 570.986 385.41 570.986C384.225 570.986 383.421 571.491 382.998 572.5V580H381.191V569.434H382.949L382.979 570.654C383.571 569.71 384.411 569.238 385.498 569.238C385.85 569.238 386.117 569.284 386.299 569.375V571.055ZM394.492 578.955C393.789 579.782 392.757 580.195 391.396 580.195C390.27 580.195 389.411 579.87 388.818 579.219C388.232 578.561 387.936 577.591 387.93 576.309V569.434H389.736V576.26C389.736 577.861 390.387 578.662 391.689 578.662C393.07 578.662 393.988 578.148 394.443 577.119V569.434H396.25V580H394.531L394.492 578.955ZM400.703 569.434L400.752 570.605C401.527 569.694 402.572 569.238 403.887 569.238C405.365 569.238 406.37 569.805 406.904 570.938C407.256 570.43 407.712 570.02 408.271 569.707C408.838 569.395 409.505 569.238 410.273 569.238C412.591 569.238 413.77 570.465 413.809 572.92V580H412.002V573.027C412.002 572.272 411.829 571.709 411.484 571.338C411.139 570.96 410.56 570.771 409.746 570.771C409.076 570.771 408.519 570.973 408.076 571.377C407.633 571.774 407.376 572.311 407.305 572.988V580H405.488V573.076C405.488 571.54 404.736 570.771 403.232 570.771C402.048 570.771 401.237 571.276 400.801 572.285V580H398.994V569.434H400.703ZM423.066 580C422.962 579.792 422.878 579.421 422.812 578.887C421.973 579.759 420.97 580.195 419.805 580.195C418.763 580.195 417.907 579.902 417.236 579.316C416.572 578.724 416.24 577.975 416.24 577.07C416.24 575.97 416.657 575.117 417.49 574.512C418.33 573.9 419.508 573.594 421.025 573.594H422.783V572.764C422.783 572.132 422.594 571.631 422.217 571.26C421.839 570.882 421.283 570.693 420.547 570.693C419.902 570.693 419.362 570.856 418.926 571.182C418.49 571.507 418.271 571.901 418.271 572.363H416.455C416.455 571.836 416.641 571.328 417.012 570.84C417.389 570.345 417.897 569.954 418.535 569.668C419.18 569.382 419.886 569.238 420.654 569.238C421.872 569.238 422.826 569.544 423.516 570.156C424.206 570.762 424.564 571.598 424.59 572.666V577.529C424.59 578.499 424.714 579.271 424.961 579.844V580H423.066ZM420.068 578.623C420.635 578.623 421.172 578.477 421.68 578.184C422.188 577.891 422.555 577.51 422.783 577.041V574.873H421.367C419.154 574.873 418.047 575.521 418.047 576.816C418.047 577.383 418.236 577.826 418.613 578.145C418.991 578.464 419.476 578.623 420.068 578.623ZM432.529 571.055C432.256 571.009 431.96 570.986 431.641 570.986C430.456 570.986 429.652 571.491 429.229 572.5V580H427.422V569.434H429.18L429.209 570.654C429.801 569.71 430.641 569.238 431.729 569.238C432.08 569.238 432.347 569.284 432.529 569.375V571.055ZM445.684 580C445.579 579.792 445.495 579.421 445.43 578.887C444.59 579.759 443.587 580.195 442.422 580.195C441.38 580.195 440.524 579.902 439.854 579.316C439.189 578.724 438.857 577.975 438.857 577.07C438.857 575.97 439.274 575.117 440.107 574.512C440.947 573.9 442.126 573.594 443.643 573.594H445.4V572.764C445.4 572.132 445.212 571.631 444.834 571.26C444.456 570.882 443.9 570.693 443.164 570.693C442.52 570.693 441.979 570.856 441.543 571.182C441.107 571.507 440.889 571.901 440.889 572.363H439.072C439.072 571.836 439.258 571.328 439.629 570.84C440.007 570.345 440.514 569.954 441.152 569.668C441.797 569.382 442.503 569.238 443.271 569.238C444.489 569.238 445.443 569.544 446.133 570.156C446.823 570.762 447.181 571.598 447.207 572.666V577.529C447.207 578.499 447.331 579.271 447.578 579.844V580H445.684ZM442.686 578.623C443.252 578.623 443.789 578.477 444.297 578.184C444.805 577.891 445.173 577.51 445.4 577.041V574.873H443.984C441.771 574.873 440.664 575.521 440.664 576.816C440.664 577.383 440.853 577.826 441.23 578.145C441.608 578.464 442.093 578.623 442.686 578.623ZM456.191 577.197C456.191 576.709 456.006 576.331 455.635 576.064C455.27 575.791 454.629 575.557 453.711 575.361C452.799 575.166 452.074 574.932 451.533 574.658C450.999 574.385 450.602 574.059 450.342 573.682C450.088 573.304 449.961 572.855 449.961 572.334C449.961 571.468 450.326 570.736 451.055 570.137C451.79 569.538 452.728 569.238 453.867 569.238C455.065 569.238 456.035 569.548 456.777 570.166C457.526 570.785 457.9 571.576 457.9 572.539H456.084C456.084 572.044 455.872 571.618 455.449 571.26C455.033 570.902 454.505 570.723 453.867 570.723C453.21 570.723 452.695 570.866 452.324 571.152C451.953 571.439 451.768 571.813 451.768 572.275C451.768 572.712 451.94 573.04 452.285 573.262C452.63 573.483 453.252 573.695 454.15 573.896C455.055 574.098 455.788 574.339 456.348 574.619C456.908 574.899 457.321 575.238 457.588 575.635C457.861 576.025 457.998 576.504 457.998 577.07C457.998 578.014 457.62 578.773 456.865 579.346C456.11 579.912 455.13 580.195 453.926 580.195C453.079 580.195 452.331 580.046 451.68 579.746C451.029 579.447 450.518 579.03 450.146 578.496C449.782 577.956 449.6 577.373 449.6 576.748H451.406C451.439 577.354 451.68 577.835 452.129 578.193C452.585 578.545 453.184 578.721 453.926 578.721C454.609 578.721 455.156 578.584 455.566 578.311C455.983 578.031 456.191 577.66 456.191 577.197ZM467.012 569.434L467.061 570.605C467.835 569.694 468.88 569.238 470.195 569.238C471.673 569.238 472.679 569.805 473.213 570.938C473.564 570.43 474.02 570.02 474.58 569.707C475.146 569.395 475.814 569.238 476.582 569.238C478.9 569.238 480.078 570.465 480.117 572.92V580H478.311V573.027C478.311 572.272 478.138 571.709 477.793 571.338C477.448 570.96 476.868 570.771 476.055 570.771C475.384 570.771 474.827 570.973 474.385 571.377C473.942 571.774 473.685 572.311 473.613 572.988V580H471.797V573.076C471.797 571.54 471.045 570.771 469.541 570.771C468.356 570.771 467.546 571.276 467.109 572.285V580H465.303V569.434H467.012ZM489.375 580C489.271 579.792 489.186 579.421 489.121 578.887C488.281 579.759 487.279 580.195 486.113 580.195C485.072 580.195 484.215 579.902 483.545 579.316C482.881 578.724 482.549 577.975 482.549 577.07C482.549 575.97 482.965 575.117 483.799 574.512C484.639 573.9 485.817 573.594 487.334 573.594H489.092V572.764C489.092 572.132 488.903 571.631 488.525 571.26C488.148 570.882 487.591 570.693 486.855 570.693C486.211 570.693 485.671 570.856 485.234 571.182C484.798 571.507 484.58 571.901 484.58 572.363H482.764C482.764 571.836 482.949 571.328 483.32 570.84C483.698 570.345 484.206 569.954 484.844 569.668C485.488 569.382 486.195 569.238 486.963 569.238C488.18 569.238 489.134 569.544 489.824 570.156C490.514 570.762 490.872 571.598 490.898 572.666V577.529C490.898 578.499 491.022 579.271 491.27 579.844V580H489.375ZM486.377 578.623C486.943 578.623 487.48 578.477 487.988 578.184C488.496 577.891 488.864 577.51 489.092 577.041V574.873H487.676C485.462 574.873 484.355 575.521 484.355 576.816C484.355 577.383 484.544 577.826 484.922 578.145C485.299 578.464 485.785 578.623 486.377 578.623ZM495.693 580H493.887V565H495.693V580ZM505.117 580C505.013 579.792 504.928 579.421 504.863 578.887C504.023 579.759 503.021 580.195 501.855 580.195C500.814 580.195 499.958 579.902 499.287 579.316C498.623 578.724 498.291 577.975 498.291 577.07C498.291 575.97 498.708 575.117 499.541 574.512C500.381 573.9 501.559 573.594 503.076 573.594H504.834V572.764C504.834 572.132 504.645 571.631 504.268 571.26C503.89 570.882 503.333 570.693 502.598 570.693C501.953 570.693 501.413 570.856 500.977 571.182C500.54 571.507 500.322 571.901 500.322 572.363H498.506C498.506 571.836 498.691 571.328 499.062 570.84C499.44 570.345 499.948 569.954 500.586 569.668C501.23 569.382 501.937 569.238 502.705 569.238C503.923 569.238 504.876 569.544 505.566 570.156C506.257 570.762 506.615 571.598 506.641 572.666V577.529C506.641 578.499 506.764 579.271 507.012 579.844V580H505.117ZM502.119 578.623C502.686 578.623 503.223 578.477 503.73 578.184C504.238 577.891 504.606 577.51 504.834 577.041V574.873H503.418C501.204 574.873 500.098 575.521 500.098 576.816C500.098 577.383 500.286 577.826 500.664 578.145C501.042 578.464 501.527 578.623 502.119 578.623ZM515.625 577.197C515.625 576.709 515.439 576.331 515.068 576.064C514.704 575.791 514.062 575.557 513.145 575.361C512.233 575.166 511.507 574.932 510.967 574.658C510.433 574.385 510.036 574.059 509.775 573.682C509.521 573.304 509.395 572.855 509.395 572.334C509.395 571.468 509.759 570.736 510.488 570.137C511.224 569.538 512.161 569.238 513.301 569.238C514.499 569.238 515.469 569.548 516.211 570.166C516.96 570.785 517.334 571.576 517.334 572.539H515.518C515.518 572.044 515.306 571.618 514.883 571.26C514.466 570.902 513.939 570.723 513.301 570.723C512.643 570.723 512.129 570.866 511.758 571.152C511.387 571.439 511.201 571.813 511.201 572.275C511.201 572.712 511.374 573.04 511.719 573.262C512.064 573.483 512.686 573.695 513.584 573.896C514.489 574.098 515.221 574.339 515.781 574.619C516.341 574.899 516.755 575.238 517.021 575.635C517.295 576.025 517.432 576.504 517.432 577.07C517.432 578.014 517.054 578.773 516.299 579.346C515.544 579.912 514.564 580.195 513.359 580.195C512.513 580.195 511.764 580.046 511.113 579.746C510.462 579.447 509.951 579.03 509.58 578.496C509.215 577.956 509.033 577.373 509.033 576.748H510.84C510.872 577.354 511.113 577.835 511.562 578.193C512.018 578.545 512.617 578.721 513.359 578.721C514.043 578.721 514.59 578.584 515 578.311C515.417 578.031 515.625 577.66 515.625 577.197Z" fill="#525252"/>
<rect x="303" y="560" width="27" height="27" rx="7" stroke="#7B5DD5" stroke-width="2"/>
<path d="M1105.63 586.656C1105.62 587.026 1105.77 587.381 1106.03 587.645C1106.28 587.909 1106.64 588.059 1107.01 588.062H1122.99C1123.36 588.059 1123.72 587.909 1123.98 587.645C1124.23 587.381 1124.38 587.026 1124.38 586.656V567.906H1105.63V586.656ZM1107.5 569.781H1122.5V586.188H1107.5V569.781Z" fill="#666666"/>
<path d="M1109.84 571.656H1111.72V583.375H1109.84V571.656Z" fill="#666666"/>
<path d="M1114.06 571.656H1115.94V583.375H1114.06V571.656Z" fill="#666666"/>
<path d="M1118.28 571.656H1120.16V583.375H1118.28V571.656Z" fill="#666666"/>
<path d="M1119.22 564.156V561.344C1119.22 560.555 1118.66 559.938 1117.95 559.938H1112.05C1111.34 559.938 1110.78 560.555 1110.78 561.344V564.156H1103.75V566.031H1126.25V564.156H1119.22ZM1112.66 561.812H1117.34V564.156H1112.66V561.812Z" fill="#666666"/>
<path d="M276.5 458C276.5 453.858 279.858 450.5 284 450.5H1156C1160.14 450.5 1163.5 453.858 1163.5 458V510C1163.5 514.142 1160.14 517.5 1156 517.5H284C279.858 517.5 276.5 514.142 276.5 510V458Z" fill="white" stroke="#E6E8EB"/>
<path d="M369.502 486.289H363.545L362.207 490H360.273L365.703 475.781H367.344L372.783 490H370.859L369.502 486.289ZM364.111 484.746H368.945L366.523 478.096L364.111 484.746ZM379.521 481.055C379.248 481.009 378.952 480.986 378.633 480.986C377.448 480.986 376.644 481.491 376.221 482.5V490H374.414V479.434H376.172L376.201 480.654C376.794 479.71 377.633 479.238 378.721 479.238C379.072 479.238 379.339 479.284 379.521 479.375V481.055ZM386.299 481.055C386.025 481.009 385.729 480.986 385.41 480.986C384.225 480.986 383.421 481.491 382.998 482.5V490H381.191V479.434H382.949L382.979 480.654C383.571 479.71 384.411 479.238 385.498 479.238C385.85 479.238 386.117 479.284 386.299 479.375V481.055ZM394.492 488.955C393.789 489.782 392.757 490.195 391.396 490.195C390.27 490.195 389.411 489.87 388.818 489.219C388.232 488.561 387.936 487.591 387.93 486.309V479.434H389.736V486.26C389.736 487.861 390.387 488.662 391.689 488.662C393.07 488.662 393.988 488.148 394.443 487.119V479.434H396.25V490H394.531L394.492 488.955ZM400.703 479.434L400.752 480.605C401.527 479.694 402.572 479.238 403.887 479.238C405.365 479.238 406.37 479.805 406.904 480.938C407.256 480.43 407.712 480.02 408.271 479.707C408.838 479.395 409.505 479.238 410.273 479.238C412.591 479.238 413.77 480.465 413.809 482.92V490H412.002V483.027C412.002 482.272 411.829 481.709 411.484 481.338C411.139 480.96 410.56 480.771 409.746 480.771C409.076 480.771 408.519 480.973 408.076 481.377C407.633 481.774 407.376 482.311 407.305 482.988V490H405.488V483.076C405.488 481.54 404.736 480.771 403.232 480.771C402.048 480.771 401.237 481.276 400.801 482.285V490H398.994V479.434H400.703ZM423.066 490C422.962 489.792 422.878 489.421 422.812 488.887C421.973 489.759 420.97 490.195 419.805 490.195C418.763 490.195 417.907 489.902 417.236 489.316C416.572 488.724 416.24 487.975 416.24 487.07C416.24 485.97 416.657 485.117 417.49 484.512C418.33 483.9 419.508 483.594 421.025 483.594H422.783V482.764C422.783 482.132 422.594 481.631 422.217 481.26C421.839 480.882 421.283 480.693 420.547 480.693C419.902 480.693 419.362 480.856 418.926 481.182C418.49 481.507 418.271 481.901 418.271 482.363H416.455C416.455 481.836 416.641 481.328 417.012 480.84C417.389 480.345 417.897 479.954 418.535 479.668C419.18 479.382 419.886 479.238 420.654 479.238C421.872 479.238 422.826 479.544 423.516 480.156C424.206 480.762 424.564 481.598 424.59 482.666V487.529C424.59 488.499 424.714 489.271 424.961 489.844V490H423.066ZM420.068 488.623C420.635 488.623 421.172 488.477 421.68 488.184C422.188 487.891 422.555 487.51 422.783 487.041V484.873H421.367C419.154 484.873 418.047 485.521 418.047 486.816C418.047 487.383 418.236 487.826 418.613 488.145C418.991 488.464 419.476 488.623 420.068 488.623ZM432.529 481.055C432.256 481.009 431.96 480.986 431.641 480.986C430.456 480.986 429.652 481.491 429.229 482.5V490H427.422V479.434H429.18L429.209 480.654C429.801 479.71 430.641 479.238 431.729 479.238C432.08 479.238 432.347 479.284 432.529 479.375V481.055ZM445.684 490C445.579 489.792 445.495 489.421 445.43 488.887C444.59 489.759 443.587 490.195 442.422 490.195C441.38 490.195 440.524 489.902 439.854 489.316C439.189 488.724 438.857 487.975 438.857 487.07C438.857 485.97 439.274 485.117 440.107 484.512C440.947 483.9 442.126 483.594 443.643 483.594H445.4V482.764C445.4 482.132 445.212 481.631 444.834 481.26C444.456 480.882 443.9 480.693 443.164 480.693C442.52 480.693 441.979 480.856 441.543 481.182C441.107 481.507 440.889 481.901 440.889 482.363H439.072C439.072 481.836 439.258 481.328 439.629 480.84C440.007 480.345 440.514 479.954 441.152 479.668C441.797 479.382 442.503 479.238 443.271 479.238C444.489 479.238 445.443 479.544 446.133 480.156C446.823 480.762 447.181 481.598 447.207 482.666V487.529C447.207 488.499 447.331 489.271 447.578 489.844V490H445.684ZM442.686 488.623C443.252 488.623 443.789 488.477 444.297 488.184C444.805 487.891 445.173 487.51 445.4 487.041V484.873H443.984C441.771 484.873 440.664 485.521 440.664 486.816C440.664 487.383 440.853 487.826 441.23 488.145C441.608 488.464 442.093 488.623 442.686 488.623ZM456.191 487.197C456.191 486.709 456.006 486.331 455.635 486.064C455.27 485.791 454.629 485.557 453.711 485.361C452.799 485.166 452.074 484.932 451.533 484.658C450.999 484.385 450.602 484.059 450.342 483.682C450.088 483.304 449.961 482.855 449.961 482.334C449.961 481.468 450.326 480.736 451.055 480.137C451.79 479.538 452.728 479.238 453.867 479.238C455.065 479.238 456.035 479.548 456.777 480.166C457.526 480.785 457.9 481.576 457.9 482.539H456.084C456.084 482.044 455.872 481.618 455.449 481.26C455.033 480.902 454.505 480.723 453.867 480.723C453.21 480.723 452.695 480.866 452.324 481.152C451.953 481.439 451.768 481.813 451.768 482.275C451.768 482.712 451.94 483.04 452.285 483.262C452.63 483.483 453.252 483.695 454.15 483.896C455.055 484.098 455.788 484.339 456.348 484.619C456.908 484.899 457.321 485.238 457.588 485.635C457.861 486.025 457.998 486.504 457.998 487.07C457.998 488.014 457.62 488.773 456.865 489.346C456.11 489.912 455.13 490.195 453.926 490.195C453.079 490.195 452.331 490.046 451.68 489.746C451.029 489.447 450.518 489.03 450.146 488.496C449.782 487.956 449.6 487.373 449.6 486.748H451.406C451.439 487.354 451.68 487.835 452.129 488.193C452.585 488.545 453.184 488.721 453.926 488.721C454.609 488.721 455.156 488.584 455.566 488.311C455.983 488.031 456.191 487.66 456.191 487.197ZM467.012 479.434L467.061 480.605C467.835 479.694 468.88 479.238 470.195 479.238C471.673 479.238 472.679 479.805 473.213 480.938C473.564 480.43 474.02 480.02 474.58 479.707C475.146 479.395 475.814 479.238 476.582 479.238C478.9 479.238 480.078 480.465 480.117 482.92V490H478.311V483.027C478.311 482.272 478.138 481.709 477.793 481.338C477.448 480.96 476.868 480.771 476.055 480.771C475.384 480.771 474.827 480.973 474.385 481.377C473.942 481.774 473.685 482.311 473.613 482.988V490H471.797V483.076C471.797 481.54 471.045 480.771 469.541 480.771C468.356 480.771 467.546 481.276 467.109 482.285V490H465.303V479.434H467.012ZM489.375 490C489.271 489.792 489.186 489.421 489.121 488.887C488.281 489.759 487.279 490.195 486.113 490.195C485.072 490.195 484.215 489.902 483.545 489.316C482.881 488.724 482.549 487.975 482.549 487.07C482.549 485.97 482.965 485.117 483.799 484.512C484.639 483.9 485.817 483.594 487.334 483.594H489.092V482.764C489.092 482.132 488.903 481.631 488.525 481.26C488.148 480.882 487.591 480.693 486.855 480.693C486.211 480.693 485.671 480.856 485.234 481.182C484.798 481.507 484.58 481.901 484.58 482.363H482.764C482.764 481.836 482.949 481.328 483.32 480.84C483.698 480.345 484.206 479.954 484.844 479.668C485.488 479.382 486.195 479.238 486.963 479.238C488.18 479.238 489.134 479.544 489.824 480.156C490.514 480.762 490.872 481.598 490.898 482.666V487.529C490.898 488.499 491.022 489.271 491.27 489.844V490H489.375ZM486.377 488.623C486.943 488.623 487.48 488.477 487.988 488.184C488.496 487.891 488.864 487.51 489.092 487.041V484.873H487.676C485.462 484.873 484.355 485.521 484.355 486.816C484.355 487.383 484.544 487.826 484.922 488.145C485.299 488.464 485.785 488.623 486.377 488.623ZM495.693 490H493.887V475H495.693V490ZM505.117 490C505.013 489.792 504.928 489.421 504.863 488.887C504.023 489.759 503.021 490.195 501.855 490.195C500.814 490.195 499.958 489.902 499.287 489.316C498.623 488.724 498.291 487.975 498.291 487.07C498.291 485.97 498.708 485.117 499.541 484.512C500.381 483.9 501.559 483.594 503.076 483.594H504.834V482.764C504.834 482.132 504.645 481.631 504.268 481.26C503.89 480.882 503.333 480.693 502.598 480.693C501.953 480.693 501.413 480.856 500.977 481.182C500.54 481.507 500.322 481.901 500.322 482.363H498.506C498.506 481.836 498.691 481.328 499.062 480.84C499.44 480.345 499.948 479.954 500.586 479.668C501.23 479.382 501.937 479.238 502.705 479.238C503.923 479.238 504.876 479.544 505.566 480.156C506.257 480.762 506.615 481.598 506.641 482.666V487.529C506.641 488.499 506.764 489.271 507.012 489.844V490H505.117ZM502.119 488.623C502.686 488.623 503.223 488.477 503.73 488.184C504.238 487.891 504.606 487.51 504.834 487.041V484.873H503.418C501.204 484.873 500.098 485.521 500.098 486.816C500.098 487.383 500.286 487.826 500.664 488.145C501.042 488.464 501.527 488.623 502.119 488.623ZM515.625 487.197C515.625 486.709 515.439 486.331 515.068 486.064C514.704 485.791 514.062 485.557 513.145 485.361C512.233 485.166 511.507 484.932 510.967 484.658C510.433 484.385 510.036 484.059 509.775 483.682C509.521 483.304 509.395 482.855 509.395 482.334C509.395 481.468 509.759 480.736 510.488 480.137C511.224 479.538 512.161 479.238 513.301 479.238C514.499 479.238 515.469 479.548 516.211 480.166C516.96 480.785 517.334 481.576 517.334 482.539H515.518C515.518 482.044 515.306 481.618 514.883 481.26C514.466 480.902 513.939 480.723 513.301 480.723C512.643 480.723 512.129 480.866 511.758 481.152C511.387 481.439 511.201 481.813 511.201 482.275C511.201 482.712 511.374 483.04 511.719 483.262C512.064 483.483 512.686 483.695 513.584 483.896C514.489 484.098 515.221 484.339 515.781 484.619C516.341 484.899 516.755 485.238 517.021 485.635C517.295 486.025 517.432 486.504 517.432 487.07C517.432 488.014 517.054 488.773 516.299 489.346C515.544 489.912 514.564 490.195 513.359 490.195C512.513 490.195 511.764 490.046 511.113 489.746C510.462 489.447 509.951 489.03 509.58 488.496C509.215 487.956 509.033 487.373 509.033 486.748H510.84C510.872 487.354 511.113 487.835 511.562 488.193C512.018 488.545 512.617 488.721 513.359 488.721C514.043 488.721 514.59 488.584 515 488.311C515.417 488.031 515.625 487.66 515.625 487.197Z" fill="#1DB863"/>
<path d="M360 485H518.418V485.996H360V485Z" fill="#1DB863"/>
<rect x="302" y="469" width="29" height="29" rx="8" fill="#1DB863"/>
<path d="M1105.63 496.656C1105.62 497.026 1105.77 497.381 1106.03 497.645C1106.28 497.909 1106.64 498.059 1107.01 498.062H1122.99C1123.36 498.059 1123.72 497.909 1123.98 497.645C1124.23 497.381 1124.38 497.026 1124.38 496.656V477.906H1105.63V496.656ZM1107.5 479.781H1122.5V496.188H1107.5V479.781Z" fill="#666666"/>
<path d="M1109.84 481.656H1111.72V493.375H1109.84V481.656Z" fill="#666666"/>
<path d="M1114.06 481.656H1115.94V493.375H1114.06V481.656Z" fill="#666666"/>
<path d="M1118.28 481.656H1120.16V493.375H1118.28V481.656Z" fill="#666666"/>
<path d="M1119.22 474.156V471.344C1119.22 470.555 1118.66 469.938 1117.95 469.938H1112.05C1111.34 469.938 1110.78 470.555 1110.78 471.344V474.156H1103.75V476.031H1126.25V474.156H1119.22ZM1112.66 471.812H1117.34V474.156H1112.66V471.812Z" fill="#666666"/>
<path d="M622.782 773.818V784H623.935V776.264H624.035L627.216 784H628.33L631.512 776.264H631.611V784H632.765V773.818H631.293L627.833 782.27H627.714L624.253 773.818H622.782ZM637.325 784.179C638.657 784.179 639.353 783.463 639.592 782.966H639.652V784H640.825V778.969C640.825 776.543 638.975 776.264 638.001 776.264C636.848 776.264 635.535 776.662 634.939 778.054L636.052 778.452C636.311 777.895 636.922 777.298 638.041 777.298C639.12 777.298 639.652 777.87 639.652 778.849V778.889C639.652 779.456 639.075 779.406 637.683 779.585C636.266 779.769 634.72 780.082 634.72 781.832C634.72 783.324 635.873 784.179 637.325 784.179ZM637.504 783.125C636.569 783.125 635.893 782.707 635.893 781.892C635.893 780.997 636.708 780.719 637.623 780.599C638.12 780.54 639.453 780.401 639.652 780.162V781.236C639.652 782.19 638.896 783.125 637.504 783.125ZM645.85 784.159C647.322 784.159 647.819 783.244 648.077 782.827H648.216V784H649.35V773.818H648.177V777.577H648.077C647.819 777.179 647.361 776.264 645.87 776.264C643.941 776.264 642.608 777.795 642.608 780.202C642.608 782.628 643.941 784.159 645.85 784.159ZM646.009 783.105C644.537 783.105 643.782 781.812 643.782 780.182C643.782 778.571 644.518 777.318 646.009 777.318C647.441 777.318 648.197 778.472 648.197 780.182C648.197 781.912 647.421 783.105 646.009 783.105ZM654.863 784.159C656.415 784.159 657.548 783.384 657.906 782.23L656.773 781.912C656.474 782.707 655.783 783.105 654.863 783.105C653.486 783.105 652.537 782.215 652.482 780.58H658.025V780.082C658.025 777.239 656.335 776.264 654.744 776.264C652.676 776.264 651.304 777.895 651.304 780.241C651.304 782.588 652.656 784.159 654.863 784.159ZM652.482 779.565C652.562 778.377 653.402 777.318 654.744 777.318C656.017 777.318 656.832 778.273 656.832 779.565H652.482ZM665.478 784H666.631L668.302 778.134H668.421L670.091 784H671.245L673.572 776.364H672.339L670.688 782.19H670.608L668.998 776.364H667.745L666.114 782.21H666.035L664.384 776.364H663.151L665.478 784ZM675.123 784H676.296V776.364H675.123V784ZM675.719 775.091C676.177 775.091 676.555 774.733 676.555 774.295C676.555 773.858 676.177 773.5 675.719 773.5C675.262 773.5 674.884 773.858 674.884 774.295C674.884 774.733 675.262 775.091 675.719 775.091ZM681.766 776.364H680.135V774.534H678.962V776.364H677.809V777.358H678.962V782.131C678.962 783.463 680.036 784.099 681.03 784.099C681.468 784.099 681.746 784.02 681.905 783.96L681.667 782.906C681.567 782.926 681.408 782.966 681.15 782.966C680.632 782.966 680.135 782.807 680.135 781.812V777.358H681.766V776.364ZM684.868 779.406C684.868 778.074 685.718 777.318 686.877 777.318C687.98 777.318 688.647 778.014 688.647 779.227V784H689.82V779.148C689.82 777.184 688.776 776.264 687.215 776.264C686.012 776.264 685.326 776.766 684.968 777.557H684.868V773.818H683.695V784H684.868V779.406ZM714.315 784H715.449V782.827H715.588C715.846 783.244 716.343 784.159 717.815 784.159C719.724 784.159 721.056 782.628 721.056 780.202C721.056 777.795 719.724 776.264 717.795 776.264C716.304 776.264 715.846 777.179 715.588 777.577H715.488V773.818H714.315V784ZM715.468 780.182C715.468 778.472 716.224 777.318 717.656 777.318C719.147 777.318 719.883 778.571 719.883 780.182C719.883 781.812 719.127 783.105 717.656 783.105C716.244 783.105 715.468 781.912 715.468 780.182ZM723.333 786.864C724.392 786.864 725.138 786.302 725.581 785.114L728.832 776.384L727.549 776.364L725.441 782.449H725.362L723.254 776.364H721.981L724.805 784.04L724.586 784.636C724.159 785.8 723.632 785.909 722.777 785.69L722.478 786.724C722.598 786.784 722.936 786.864 723.333 786.864ZM734.481 784H740.447V782.906H735.714V773.818H734.481V784ZM745.399 784.159C746.95 784.159 748.083 783.384 748.441 782.23L747.308 781.912C747.009 782.707 746.318 783.105 745.399 783.105C744.021 783.105 743.072 782.215 743.017 780.58H748.561V780.082C748.561 777.239 746.87 776.264 745.279 776.264C743.211 776.264 741.839 777.895 741.839 780.241C741.839 782.588 743.191 784.159 745.399 784.159ZM743.017 779.565C743.097 778.377 743.937 777.318 745.279 777.318C746.552 777.318 747.367 778.273 747.367 779.565H743.017ZM753.666 776.364H752.036V774.534H750.862V776.364H749.709V777.358H750.862V782.131C750.862 783.463 751.936 784.099 752.931 784.099C753.368 784.099 753.646 784.02 753.806 783.96L753.567 782.906C753.468 782.926 753.308 782.966 753.05 782.966C752.533 782.966 752.036 782.807 752.036 781.812V777.358H753.666V776.364ZM755.431 784H756.605V776.364H755.431V784ZM755.491 775.33H756.525L758.076 773.023H756.704L755.491 775.33ZM761.856 784.159C763.546 784.159 764.66 783.125 764.859 781.773H763.685C763.467 782.608 762.771 783.105 761.856 783.105C760.464 783.105 759.569 781.952 759.569 780.182C759.569 778.452 760.484 777.318 761.856 777.318C762.89 777.318 763.506 777.955 763.685 778.651H764.859C764.66 777.219 763.447 776.264 761.836 776.264C759.768 776.264 758.396 777.895 758.396 780.222C758.396 782.509 759.708 784.159 761.856 784.159ZM766.574 784H767.747V776.364H766.574V784ZM767.17 775.091C767.628 775.091 768.006 774.733 768.006 774.295C768.006 773.858 767.628 773.5 767.17 773.5C766.713 773.5 766.335 773.858 766.335 774.295C766.335 774.733 766.713 775.091 767.17 775.091ZM772.143 784.179C773.476 784.179 774.172 783.463 774.41 782.966H774.47V784H775.643V778.969C775.643 776.543 773.794 776.264 772.819 776.264C771.666 776.264 770.354 776.662 769.757 778.054L770.871 778.452C771.129 777.895 771.741 777.298 772.859 777.298C773.938 777.298 774.47 777.87 774.47 778.849V778.889C774.47 779.456 773.893 779.406 772.501 779.585C771.084 779.769 769.538 780.082 769.538 781.832C769.538 783.324 770.692 784.179 772.143 784.179ZM772.322 783.125C771.388 783.125 770.711 782.707 770.711 781.892C770.711 780.997 771.527 780.719 772.442 780.599C772.939 780.54 774.271 780.401 774.47 780.162V781.236C774.47 782.19 773.714 783.125 772.322 783.125ZM782.299 773.818H781.006L784.745 784H786.018L789.756 773.818H788.464L785.441 782.389H785.322L782.299 773.818ZM791.183 784H792.357V776.364H791.183V784ZM791.78 775.091C792.237 775.091 792.615 774.733 792.615 774.295C792.615 773.858 792.237 773.5 791.78 773.5C791.322 773.5 790.945 773.858 790.945 774.295C790.945 774.733 791.322 775.091 791.78 775.091ZM797.707 784.159C799.258 784.159 800.392 783.384 800.75 782.23L799.616 781.912C799.318 782.707 798.627 783.105 797.707 783.105C796.33 783.105 795.381 782.215 795.326 780.58H800.869V780.082C800.869 777.239 799.179 776.264 797.588 776.264C795.52 776.264 794.148 777.895 794.148 780.241C794.148 782.588 795.5 784.159 797.707 784.159ZM795.326 779.565C795.405 778.377 796.246 777.318 797.588 777.318C798.861 777.318 799.676 778.273 799.676 779.565H795.326ZM802.654 784H803.827V776.364H802.654V784ZM803.251 775.091C803.708 775.091 804.086 774.733 804.086 774.295C804.086 773.858 803.708 773.5 803.251 773.5C802.793 773.5 802.415 773.858 802.415 774.295C802.415 774.733 802.793 775.091 803.251 775.091ZM805.976 784H807.15V779.168C807.15 778.134 807.965 777.378 809.078 777.378C809.392 777.378 809.715 777.438 809.794 777.457V776.264C809.66 776.254 809.352 776.244 809.178 776.244C808.263 776.244 807.468 776.761 807.189 777.517H807.11V776.364H805.976V784ZM813.432 784.179C814.765 784.179 815.461 783.463 815.699 782.966H815.759V784H816.932V778.969C816.932 776.543 815.083 776.264 814.108 776.264C812.955 776.264 811.643 776.662 811.046 778.054L812.16 778.452C812.418 777.895 813.03 777.298 814.148 777.298C815.227 777.298 815.759 777.87 815.759 778.849V778.889C815.759 779.456 815.182 779.406 813.79 779.585C812.373 779.769 810.827 780.082 810.827 781.832C810.827 783.324 811.981 784.179 813.432 784.179ZM813.611 783.125C812.677 783.125 812.001 782.707 812.001 781.892C812.001 780.997 812.816 780.719 813.731 780.599C814.228 780.54 815.56 780.401 815.759 780.162V781.236C815.759 782.19 815.003 783.125 813.611 783.125Z" fill="#808080"/>
<path d="M701.989 784.159L707.1 779.048C708.323 777.825 708.313 775.807 707.1 774.614C705.857 773.391 703.913 773.401 702.665 774.614L701.989 775.27L701.313 774.614C700.065 773.401 698.121 773.391 696.878 774.614C695.665 775.807 695.655 777.825 696.878 779.048L701.989 784.159Z" fill="#6A3D88"/>
<defs>
<filter id="filter0_d_202_26" x="51" y="32" width="48" height="47.5876" filterUnits="userSpaceOnUse" color-interpolation-filters="sRGB">
<feFlood flood-opacity="0" result="BackgroundImageFix"/>
<feColorMatrix in="SourceAlpha" type="matrix" values="0 0 0 0 0 0 0 0 0 0 0 0 0 0 0 0 0 0 127 0" result="hardAlpha"/>
<feOffset dy="4"/>
<feGaussianBlur stdDeviation="2"/>
<feComposite in2="hardAlpha" operator="out"/>
<feColorMatrix type="matrix" values="0 0 0 0 0 0 0 0 0 0 0 0 0 0 0 0 0 0 0.25 0"/>
<feBlend mode="normal" in2="BackgroundImageFix" result="effect1_dropShadow_202_26"/>
<feBlend mode="normal" in="SourceGraphic" in2="effect1_dropShadow_202_26" result="shape"/>
</filter>
</defs>
</svg>
